<svg width="73" height="53" viewBox="0 0 73 53" fill="none" xmlns="http://www.w3.org/2000/svg">
<g clip-path="url(#clip0_177_1684)">
<path d="M72.9982 44.1317C72.8055 44.6402 72.5833 45.1366 72.3326 45.6185C71.4637 47.1107 70.1611 48.0024 68.4446 48.0151C62.5795 48.0585 56.7145 48.0386 50.8494 48.044H49.8859C49.8859 48.5866 49.8859 49.075 49.8859 49.5688C49.877 50.0969 49.8859 50.6269 49.8342 51.1514C49.8118 51.5532 49.6659 51.9377 49.4169 52.2511C49.1679 52.5644 48.8284 52.7909 48.446 52.8987C48.0819 53.0222 47.69 53.0347 47.3189 52.9347C46.9479 52.8348 46.6139 52.6266 46.3583 52.3362C45.0879 51.0357 43.8192 49.7334 42.5149 48.4691C42.2444 48.2231 41.8983 48.0793 41.5353 48.0621C39.3763 48.0259 37.2083 47.9445 35.0547 48.0621C31.8072 48.243 29.559 46.4903 29.2039 43.1115C28.4545 43.3177 27.7033 43.4968 26.9753 43.7464C26.8361 43.7934 26.7165 44.1082 26.7112 44.3126C26.6844 45.3237 26.6791 46.3365 26.7112 47.3458C26.7397 48.507 26.2705 49.3698 25.2302 49.8292C24.1596 50.2995 23.2478 49.9161 22.461 49.1166C20.8854 47.514 19.3152 45.9043 17.7147 44.327C17.4131 44.0332 17.0457 43.8179 16.6441 43.6994C8.59859 41.4294 3.30095 36.2582 0.87071 28.1731C-1.62733 19.8402 1.46132 10.2881 8.26136 4.85647C12.8774 1.17023 18.1465 -0.508281 23.9419 0.126591C32.4674 1.05991 38.5037 5.67403 42.0599 13.5927C42.3244 14.183 42.5416 14.794 42.7094 15.4196C42.8432 15.9278 43.0823 16.0852 43.6015 16.0816C46.9917 16.0562 50.3927 16.0689 53.7882 16.0689C58.4667 16.0689 63.1452 16.0689 67.8237 16.0689C70.4698 16.0689 72.0382 17.2356 72.8679 19.7588C72.906 19.8425 72.9527 19.9219 73.0071 19.9957L72.9982 44.1317ZM24.4112 47.7383C24.4112 46.1611 24.4112 44.7937 24.4112 43.4245C24.4112 42.0896 24.6057 41.8147 25.8619 41.5578C28.4075 41.067 30.8203 40.0304 32.9385 38.5173C39.1729 33.9864 41.9582 27.7715 41.3248 20.0681C40.9857 15.9712 39.3477 12.323 36.6606 9.21556C33.0277 5.01383 28.4402 2.70405 22.9409 2.40199C17.9877 2.13249 13.5608 3.641 9.64777 6.75385C3.49723 11.6483 0.774356 20.5582 3.24564 28.0465C5.60807 35.2019 10.4507 39.6695 17.6522 41.5434C18.1477 41.679 18.6021 41.9376 18.9744 42.2958C20.5999 43.8803 22.1772 45.5154 23.7742 47.1306C23.9294 47.2952 24.1025 47.4453 24.4112 47.7383ZM47.3665 50.068L47.527 49.992C47.527 49.1365 47.527 48.2809 47.527 47.4254C47.527 46.0978 47.9071 45.7216 49.2275 45.7216H67.7505C69.7251 45.7216 70.7131 44.7123 70.7142 42.6937C70.7142 35.5914 70.7142 28.4884 70.7142 21.3848C70.7142 19.4115 69.7222 18.4112 67.779 18.4112H43.482C43.5034 18.7278 43.507 18.9448 43.5355 19.1564C44.2885 24.5718 43.1626 29.5767 40.2845 34.1691C38.2694 37.4047 35.435 40.0332 32.0766 41.7803C31.9145 41.844 31.7769 41.959 31.6843 42.1082C31.5917 42.2574 31.5491 42.433 31.5628 42.6087C31.5467 44.6942 32.5281 45.7161 34.5961 45.7179C36.8997 45.7179 39.205 45.7776 41.5068 45.6926C42.6505 45.651 43.4891 45.9784 44.2475 46.8466C45.2306 47.9753 46.3226 49.0008 47.3665 50.068Z" fill="#818181"/>
<path d="M22.4931 11.167C26.2723 11.3479 29.3467 14.6814 29.0791 19.064C28.9024 21.9417 27.3501 23.973 24.7806 25.1975C24.5451 25.3096 24.3007 25.4001 24.0562 25.4887C23.4335 25.7184 23.0748 26.138 23.0784 26.8326C23.0772 26.929 23.0688 27.0251 23.0534 27.1202C22.9303 27.8961 22.5181 28.2923 21.8472 28.2651C21.1763 28.238 20.7855 27.7713 20.7267 27.0117C20.6071 25.4598 21.5921 24.0182 23.0873 23.329C23.9331 22.9402 24.8181 22.4916 25.4712 21.8459C27.0396 20.2994 27.2359 17.9571 26.1314 16.0072C25.0608 14.1261 22.8803 13.1331 20.8587 13.6106C19.8195 13.8365 18.8808 14.3986 18.1841 15.2122C17.4874 16.0259 17.0703 17.0469 16.9957 18.1217C16.9927 18.2658 16.9808 18.4096 16.96 18.5521C16.8244 19.2557 16.3604 19.6627 15.7449 19.6374C15.1293 19.6121 14.6314 19.0948 14.6564 18.3713C14.7474 15.7251 15.9322 13.6884 18.1073 12.2577C19.2671 11.4799 20.5536 11.1037 22.4931 11.167Z" fill="#818181"/>
<path d="M21.8756 30.897C22.1818 30.897 22.4755 31.0203 22.692 31.2397C22.9085 31.4592 23.0301 31.7569 23.0301 32.0672C23.0301 32.3776 22.9085 32.6753 22.692 32.8947C22.4755 33.1142 22.1818 33.2375 21.8756 33.2375C21.5695 33.2375 21.2758 33.1142 21.0593 32.8947C20.8428 32.6753 20.7212 32.3776 20.7212 32.0672C20.7212 31.7569 20.8428 31.4592 21.0593 31.2397C21.2758 31.0203 21.5695 30.897 21.8756 30.897Z" fill="#818181"/>
<path d="M51.1099 36.5928C51.3508 36.3595 51.5399 36.1841 51.7219 35.9996L62.0906 25.4835C62.2786 25.2672 62.4933 25.0763 62.7294 24.9155C63.2326 24.628 63.7357 24.6587 64.1568 25.1073C64.3389 25.2849 64.4518 25.5229 64.4751 25.7779C64.4984 26.033 64.4304 26.288 64.2835 26.4964C64.1383 26.7153 63.9675 26.9157 63.775 27.0933C59.9685 30.9592 56.1619 34.8221 52.3554 38.682C51.3954 39.6551 50.9101 39.6605 49.9662 38.7037C48.1699 36.8841 46.3755 35.0626 44.5829 33.2394C44.409 33.0759 44.2528 32.894 44.1172 32.6968C43.974 32.4816 43.9072 32.2235 43.9277 31.9648C43.9482 31.7061 44.0549 31.4621 44.2301 31.2729C44.4054 31.0836 44.6389 30.9604 44.8923 30.9233C45.1457 30.8863 45.404 30.9376 45.6249 31.0689C45.8625 31.2277 46.079 31.4168 46.2691 31.6314C47.8678 33.272 49.4701 34.9125 51.1099 36.5928Z" fill="#818181"/>
</g>
<defs>
<clipPath id="clip0_177_1684">
<rect width="73" height="53" fill="white"/>
</clipPath>
</defs>
</svg>
