<svg width="31" height="23" viewBox="0 0 31 23" fill="none" xmlns="http://www.w3.org/2000/svg">
<g clip-path="url(#clip0_1_5948)">
<path d="M-0.000658983 0.701553C0.240772 0.152908 0.657031 -0.00384762 1.21936 7.12733e-05C4.93164 0.0173144 8.64392 0.00869289 12.3562 0.00869289C13.1653 0.00869289 13.4915 0.348069 13.4915 1.18436C13.4915 5.0322 13.4897 8.87951 13.4862 12.7263C13.4852 13.0069 13.4418 13.2857 13.3575 13.5524C12.4427 16.4184 11.5204 19.2823 10.5905 22.1442C10.3786 22.8002 10.122 22.9962 9.46206 22.9977C8.61541 22.9977 7.76826 22.9977 6.92061 22.9977C6.16377 22.9977 5.83076 22.6536 5.83001 21.8714C5.83001 19.3691 5.83001 16.8667 5.83001 14.3644V13.9576H5.47808C4.03555 13.9576 2.59302 13.9466 1.15125 13.9639C0.59043 13.9709 0.193848 13.7734 -0.00292969 13.2138L-0.000658983 0.701553Z" fill="#CBCBCB"/>
<path d="M31 13.2137C30.5146 14.7013 30.03 16.189 29.5461 17.6766C29.0597 19.1767 28.5754 20.6777 28.093 22.1794C27.8947 22.7931 27.6268 22.9953 27.0009 22.9976C26.1638 22.9976 25.326 22.9976 24.489 22.9976C23.664 22.9976 23.3537 22.6771 23.3537 21.8322C23.3537 19.3397 23.3537 16.8471 23.3537 14.3541V13.9568H18.6288C17.8447 13.9568 17.5056 13.6048 17.5049 12.7928V1.15529C17.5049 0.359754 17.8439 0.0094054 18.6106 0.00862162C22.3335 0.00862162 26.0564 0.0172431 29.7793 0C30.3423 0 30.7586 0.156755 31 0.697563V13.2137Z" fill="#CBCBCB"/>
</g>
<defs>
<clipPath id="clip0_1_5948">
<rect width="31" height="23" fill="white"/>
</clipPath>
</defs>
</svg>
