<svg width="63" height="63" viewBox="0 0 63 63" fill="none" xmlns="http://www.w3.org/2000/svg">
<circle cx="31.5" cy="31.5" r="31" stroke="black"/>
<path d="M31.4616 42.9961C27.4081 42.9961 23.3546 42.9961 19.3011 42.9961C17.1157 42.9961 15.4149 41.6015 15.0495 39.5299C15.0109 39.2657 14.9948 38.9989 15.0015 38.7322C15.0015 33.8973 15.0015 29.0625 15.0015 24.2277C15.0015 21.761 16.8282 20.0009 19.377 20C27.4597 20 35.5423 20 43.6249 20C46.1795 20 47.9947 21.7573 47.9966 24.2295C48.0011 29.0774 48.0011 33.9249 47.9966 38.7721C47.9966 41.2426 46.1776 42.998 43.622 42.9998C39.5692 43.0005 35.5157 42.9992 31.4616 42.9961ZM17.3032 26.1319V26.5493C17.3032 30.5957 17.3272 34.6384 17.2878 38.6894C17.2762 39.9372 18.1829 40.7916 19.4511 40.7879C27.485 40.7609 35.5189 40.774 43.5528 40.774C44.9392 40.774 45.693 40.0506 45.694 38.7182C45.694 34.6489 45.694 30.579 45.694 26.5084C45.694 26.3894 45.6834 26.2695 45.6757 26.1123C45.519 26.197 45.4151 26.2499 45.3142 26.3076C41.6042 28.4554 37.8934 30.6022 34.1815 32.7481C32.422 33.7616 30.6357 33.7802 28.8676 32.7723C26.0293 31.1545 23.2027 29.5181 20.3712 27.8919L17.3032 26.1319ZM45.6199 23.6029C45.607 23.5379 45.5903 23.4736 45.5699 23.4104C45.2565 22.6303 44.5777 22.2268 43.5701 22.2268H19.427C19.3193 22.2268 19.2107 22.2268 19.103 22.2324C18.354 22.2798 17.831 22.6508 17.4801 23.2802C17.3397 23.5313 17.3839 23.6717 17.656 23.8269C21.7124 26.1384 25.7707 28.4489 29.8079 30.7919C30.926 31.4427 31.9596 31.4548 33.0768 30.8068C36.6005 28.7613 40.1435 26.7474 43.6787 24.7205C44.3261 24.3461 44.9732 23.972 45.6199 23.5982V23.6029Z" fill="black"/>
</svg>
