<svg width="63" height="63" viewBox="0 0 63 63" fill="none" xmlns="http://www.w3.org/2000/svg">
<circle cx="31.5" cy="31.5" r="31" stroke="black"/>
<g clip-path="url(#clip0_409_6)">
<path d="M40.4477 44.9081C40.1434 44.9685 39.8398 45.0403 39.5354 45.0852C37.8319 45.3321 36.177 45.0966 34.5573 44.5584C32.1096 43.7515 30.0147 42.3571 28.0813 40.7001C25.7278 38.7177 23.6516 36.4279 21.9084 33.8922C20.7954 32.3047 19.9617 30.5388 19.4431 28.6707C18.9906 26.9523 18.8515 25.2167 19.3295 23.4673C19.7013 22.1221 20.4034 20.9428 21.2234 19.8321C21.9176 18.8964 22.6516 17.9879 23.5864 17.2765C24.6551 16.4605 25.8586 16.4434 26.9801 17.1912C27.6791 17.6821 28.2834 18.2954 28.7638 19.0016C29.6485 20.2315 30.5675 21.4403 31.2037 22.8291C31.5398 23.5325 31.7384 24.2937 31.7887 25.0717C31.8209 25.5458 31.7459 26.021 31.5693 26.4622C31.3928 26.9033 31.1191 27.299 30.7686 27.6199L29.5132 28.8324C28.7458 29.5755 28.5973 30.2695 29.1482 31.1854C30.1033 32.8088 31.5166 34.1139 33.2108 34.9371C33.9773 35.3113 34.5505 35.2295 35.1469 34.5704C35.4892 34.1946 35.8675 33.8514 36.2224 33.4881C37.2909 32.393 38.5688 32.149 39.9654 32.6423C40.6982 32.8789 41.3959 33.2129 42.0397 33.6355C43.3409 34.546 44.5915 35.5306 45.8217 36.5327C46.4412 37.0385 46.8727 37.7376 47.0472 38.518C47.273 39.5005 46.9731 40.3581 46.2989 41.0766C45.2371 42.202 44.0094 43.1584 42.6585 43.9128C42.4248 44.0446 42.1937 44.1831 41.9613 44.3183L40.4477 44.9081ZM22.0047 29.4662C22.4393 30.5915 23.0076 31.6605 23.6973 32.6502C25.5111 35.2917 27.7091 37.6477 30.2185 39.6403C31.9117 40.9992 33.7415 42.1265 35.8656 42.6853C37.347 43.0777 38.8341 43.206 40.3056 42.6325C41.9724 41.983 43.3681 40.9311 44.6374 39.6995C45.0341 39.3141 45.0342 39.0504 44.7231 38.5956C44.6541 38.4795 44.5691 38.3735 44.4706 38.281C43.4215 37.4351 42.3785 36.5752 41.3046 35.7604C40.6768 35.2741 39.9628 34.9109 39.2001 34.6897C38.6482 34.5325 38.1614 34.6019 37.7539 35.0594C37.4146 35.4379 37.0371 35.7828 36.6815 36.1444C35.6019 37.2458 34.3427 37.6375 32.8444 37.1471C31.9177 36.826 31.0592 36.3345 30.3132 35.6978C29.0812 34.6963 27.9589 33.5978 27.1964 32.1787C26.3084 30.537 26.5425 28.7489 27.8377 27.4394C28.2562 27.0204 28.6734 26.5979 29.1205 26.2123C29.3171 26.0569 29.4642 25.8476 29.5438 25.6099C29.6234 25.3723 29.632 25.1166 29.5687 24.8741C29.5216 24.64 29.4577 24.4095 29.3775 24.1846C28.9374 22.9656 28.1913 21.9319 27.4291 20.8967C27.0056 20.3086 26.5404 19.7517 26.037 19.2304C25.5182 18.7053 25.1694 18.7307 24.6424 19.2347C23.7774 20.0623 23.0188 20.9944 22.3841 22.0094C21.7508 23.0319 21.2731 24.1004 21.235 25.3311C21.1949 26.7485 21.4573 28.1582 22.0047 29.4662V29.4662Z" fill="black"/>
</g>
<defs>
<clipPath id="clip0_409_6">
<rect width="22.2857" height="32" fill="white" transform="translate(16 20.0918) rotate(-21.2903)"/>
</clipPath>
</defs>
</svg>
