<svg width="63" height="63" viewBox="0 0 63 63" fill="none" xmlns="http://www.w3.org/2000/svg">
<circle cx="31.5" cy="31.5" r="31" stroke="black"/>
<g clip-path="url(#clip0_409_4)">
<path d="M31.0032 15H32.9988C33.6467 15.0885 34.2996 15.1503 34.9409 15.2705C43.2905 16.8436 48.9908 24.6875 47.8553 33.1033C47.2708 37.4528 45.2018 40.9998 41.7266 43.6768C38.2281 46.3721 34.2454 47.4108 29.8701 46.8547C26.8902 46.4765 24.2249 45.3075 21.9063 43.3954C18.8595 40.8829 16.9608 37.6799 16.2485 33.793C16.14 33.201 16.0815 32.6007 15.998 32.0045V30.0005C16.0456 29.6098 16.0866 29.2181 16.1433 28.8315C16.6443 25.3438 18.1172 22.3262 20.5862 19.8137C22.9817 17.3739 25.869 15.8433 29.2422 15.2505C29.8251 15.1436 30.4137 15.081 31.0032 15ZM32.0051 17.13C24.3711 17.1225 18.1289 23.3624 18.1297 31.0008C18.1305 38.6393 24.3368 44.8449 31.9768 44.8708C39.6025 44.8958 45.853 38.6618 45.8681 31.01C45.8839 23.3816 39.6501 17.1376 32.0051 17.13Z" fill="black"/>
<path d="M30.9362 26.7375C30.9362 25.318 30.9303 23.9044 30.9362 22.4883C30.9315 22.3232 30.9656 22.1592 31.0357 22.0097C31.1057 21.8601 31.2099 21.729 31.3398 21.627C31.4697 21.5249 31.6217 21.4547 31.7836 21.422C31.9455 21.3893 32.1128 21.395 32.2721 21.4387C32.7556 21.5598 33.0637 21.9789 33.0654 22.5367C33.0654 24.1198 33.0654 25.703 33.0654 27.2861C33.0654 28.2547 33.0729 29.2233 33.0595 30.1919C33.0541 30.288 33.0739 30.3839 33.1168 30.4701C33.1596 30.5563 33.2242 30.6299 33.3042 30.6837C34.8538 31.9128 36.3994 33.148 37.9407 34.3893C38.4534 34.801 38.5427 35.4648 38.1628 35.9349C37.7829 36.405 37.13 36.4643 36.6048 36.0476C35.5193 35.1867 34.4414 34.3175 33.3601 33.4525C32.7105 32.9314 32.0626 32.4079 31.4079 31.8927C31.2529 31.7773 31.1285 31.6256 31.0457 31.4509C30.9628 31.2762 30.9241 31.0839 30.9329 30.8907C30.9412 29.508 30.9354 28.1228 30.9362 26.7375Z" fill="black"/>
</g>
<defs>
<clipPath id="clip0_409_4">
<rect width="32" height="32" fill="white" transform="translate(16 15)"/>
</clipPath>
</defs>
</svg>
