<svg width="63" height="63" viewBox="0 0 63 63" fill="none" xmlns="http://www.w3.org/2000/svg">
<circle cx="31.5" cy="31.5" r="31" stroke="black"/>
<g clip-path="url(#clip0_409_2)">
<path d="M31.8058 15.0001C32.4922 15.1386 33.191 15.2348 33.8626 15.425C35.9582 16.026 37.6799 17.217 39.0238 18.93C40.6115 20.9513 41.3493 23.2653 41.2511 25.8368C41.1885 27.6122 40.6523 29.3381 39.6985 30.8341C38.6358 32.5205 37.5568 34.1991 36.4856 35.8792C36.4412 35.9489 36.403 36.0217 36.3454 36.1218C36.8783 36.2283 37.3948 36.3198 37.9035 36.4349C39.4499 36.7831 40.9675 37.2174 42.3737 37.9765C43.1941 38.4194 43.9529 38.9476 44.4772 39.7364C45.2726 40.9298 45.1479 42.3102 44.1617 43.4035C43.3873 44.2643 42.3987 44.8058 41.3508 45.2464C39.5255 46.0125 37.6114 46.4202 35.6575 46.6847C33.7269 46.9489 31.7774 47.0471 29.8302 46.9781C26.7919 46.8694 23.7909 46.4843 20.9271 45.3692C19.9673 44.9959 19.0574 44.5335 18.2729 43.8472C16.5083 42.2985 16.5855 40.177 18.4427 38.7418C19.6191 37.8325 20.9622 37.2745 22.3754 36.884C23.3593 36.6125 24.3643 36.4145 25.36 36.1844L25.6552 36.1171C25.0102 35.0998 24.3807 34.1099 23.7551 33.1184C23.1568 32.17 22.518 31.2442 21.9757 30.2645C20.8251 28.1829 20.4542 25.9393 20.8905 23.6018C21.5722 19.97 23.6351 17.3876 26.964 15.8397C27.8995 15.4167 28.8983 15.1523 29.9198 15.0572C30.0103 15.0428 30.1001 15.0235 30.1885 14.9993L31.8058 15.0001ZM30.9987 40.9924C31.0907 40.8563 31.167 40.749 31.2379 40.6387C33.5392 37.0194 35.8507 33.4072 38.1357 29.7785C39.1804 28.1203 39.5551 26.2868 39.3198 24.3437C39.0994 22.529 38.3764 20.9271 37.1213 19.5928C35.1862 17.5363 32.7921 16.6379 30.0039 16.9549C27.5888 17.2295 25.6661 18.4214 24.2163 20.3863C22.2258 23.0846 22.0762 26.9832 23.8712 29.8098C26.1813 33.4481 28.4941 37.0841 30.8094 40.7177C30.8632 40.8023 30.9232 40.8829 30.9987 40.9924ZM31.7342 45.1219C32.4875 45.0585 33.9763 44.9654 35.4565 44.8034C37.1863 44.627 38.8831 44.2087 40.4978 43.5607C41.3345 43.218 42.1501 42.8298 42.7664 42.1342C43.2276 41.6122 43.2509 41.1098 42.7594 40.616C42.3957 40.2483 41.9836 39.9324 41.5347 39.677C39.665 38.6369 37.6114 38.2363 35.5297 37.9225C35.2602 37.8818 35.148 37.9812 35.0202 38.1846C33.981 39.8374 32.9394 41.4878 31.8783 43.1256C31.7284 43.358 31.5161 43.543 31.266 43.6593C30.8344 43.8432 30.4316 43.6367 30.1262 43.1554C29.0615 41.4807 28.0002 39.804 26.9422 38.1252C26.8378 37.9593 26.7459 37.8724 26.527 37.9147C25.8882 38.0375 25.24 38.1126 24.6027 38.2425C23.1506 38.5399 21.7241 38.9335 20.4324 39.6856C19.9869 39.9479 19.5778 40.2681 19.2155 40.6379C18.752 41.1075 18.773 41.6153 19.2155 42.1068C19.416 42.3311 19.6413 42.5317 19.8871 42.7046C20.8664 43.3901 21.9765 43.7892 23.1124 44.1132C25.6864 44.8551 28.3297 45.0844 31.7342 45.1219Z" fill="black"/>
<path d="M31.0179 20.686C31.632 20.6881 32.2397 20.8121 32.806 21.051C33.3722 21.2899 33.8859 21.639 34.3173 22.0781C34.7487 22.5171 35.0894 23.0376 35.3197 23.6095C35.5501 24.1814 35.6655 24.7934 35.6595 25.4103C35.6509 27.9841 33.556 30.0625 30.9719 30.0571C30.3577 30.055 29.75 29.931 29.1838 29.6921C28.6175 29.4532 28.1039 29.1042 27.6725 28.6651C27.2411 28.226 26.9004 27.7055 26.6701 27.1336C26.4397 26.5617 26.3242 25.9497 26.3303 25.3328C26.3389 22.7598 28.4353 20.6813 31.0179 20.686ZM33.7905 25.3602C33.7126 23.7302 32.5386 22.5673 30.9859 22.5782C29.3624 22.59 28.2055 23.8217 28.2164 25.3829C28.2273 27.0122 29.452 28.1758 31.0085 28.1649C32.6274 28.1539 33.7344 26.9237 33.7905 25.3602Z" fill="black"/>
</g>
<defs>
<clipPath id="clip0_409_2">
<rect width="28" height="32" fill="white" transform="translate(17 15)"/>
</clipPath>
</defs>
</svg>
