<?xml version="1.0" encoding="utf-8"?>
<!-- Generator: Adobe Illustrator 26.0.3, SVG Export Plug-In . SVG Version: 6.00 Build 0)  -->
<svg version="1.1" id="Слой_1" xmlns="http://www.w3.org/2000/svg" xmlns:xlink="http://www.w3.org/1999/xlink" width="34" height="530"
	 viewBox="0 0 34 530" style="enable-background:new 0 0 34 530;" xml:space="preserve">
<style type="text/css">
	.st0{fill-rule:evenodd;clip-rule:evenodd;fill:#E9E9E3;}
	.st1{fill-rule:evenodd;clip-rule:evenodd;fill:#B9B9B8;}
	.st2{fill-rule:evenodd;clip-rule:evenodd;fill:#E9372F;}
	.st3{fill-rule:evenodd;clip-rule:evenodd;fill:#FFFFFF;}
	.st4{fill-rule:evenodd;clip-rule:evenodd;fill:#3591D7;}
	.st5{fill-rule:evenodd;clip-rule:evenodd;fill:#FFA200;}
	.st6{fill-rule:evenodd;clip-rule:evenodd;fill:#C63D23;}
	.st7{fill-rule:evenodd;clip-rule:evenodd;fill:#FF5400;}
	.st8{fill-rule:evenodd;clip-rule:evenodd;fill:#40ACF7;}
	.st9{fill-rule:evenodd;clip-rule:evenodd;fill:#1254C3;}
	.st10{fill-rule:evenodd;clip-rule:evenodd;fill:#7BAD1B;}
	.st11{fill-rule:evenodd;clip-rule:evenodd;fill:#3387DF;}
	.st12{fill-rule:evenodd;clip-rule:evenodd;fill:#7E4EE4;}
</style>
<g>
	<g>
		<path class="st0" d="M22.8,0H8.4c-1.1,0-2,0.9-2,2V33c0,1.1,0.9,2,2,2H32c1.1,0,2-0.9,2-2V9.7L22.8,0z"/>
		<path class="st1" d="M28.6,5.1L22.8,0v5.9c0,2.1,1.5,3.8,3.4,3.8H34L28.6,5.1z"/>
		<path class="st2" d="M26.1,29.9H0.7c-0.4,0-0.7-0.3-0.7-0.7v-11c0-0.4,0.3-0.7,0.7-0.7h25.4c0.4,0,0.7,0.3,0.7,0.7v11
			C26.8,29.6,26.5,29.9,26.1,29.9z"/>
	</g>
	<path id="PDF_00000000215265652638434370000001231423619044327356_" class="st3" d="M5.5,26.5v-2h2c1.1,0,2-0.8,2-1.9
		c0,0,0-0.1,0-0.1c0-1-0.8-1.9-1.8-1.9c-0.1,0-0.1,0-0.2,0h-3v6C4.5,26.5,5.5,26.5,5.5,26.5z M7.5,23.4h-2v-1.8h2
		c0.5,0,0.9,0.4,0.9,0.8c0,0,0,0,0,0C8.4,22.9,8,23.4,7.5,23.4C7.5,23.4,7.5,23.4,7.5,23.4z M13.3,26.5c1.7,0.1,3.1-1.2,3.2-2.8
		c0.1-1.7-1.2-3.1-2.8-3.2c-0.1,0-0.2,0-0.3,0h-2.8v6H13.3L13.3,26.5z M13.5,25.5h-2v-3.9h2c1,0,1.9,0.8,1.9,1.8c0,0.1,0,0.1,0,0.2
		c0.1,1-0.7,1.9-1.8,2C13.6,25.5,13.5,25.5,13.5,25.5z M18.5,26.5v-3h3v-1h-3v-1h3v-1h-4v6L18.5,26.5L18.5,26.5z"/>
</g>
<g>
	<g>
		<path class="st0" d="M22.8,55.9H8.4c-1.1,0-2,0.9-2,2v31.1c0,1.1,0.9,2,2,2H32c1.1,0,2-0.9,2-2V65.6L22.8,55.9z"/>
		<path class="st1" d="M28.6,60.9l-5.8-5.1v5.9c0,2.1,1.5,3.8,3.4,3.8H34L28.6,60.9z"/>
		<path class="st4" d="M26.1,85.8H0.7c-0.4,0-0.7-0.3-0.7-0.7v-11c0-0.4,0.3-0.7,0.7-0.7h25.4c0.4,0,0.7,0.3,0.7,0.7v11
			C26.8,85.5,26.5,85.8,26.1,85.8z"/>
	</g>
	<path id="DOC_00000145041401633355944610000014014986437040443791_" class="st3" d="M6.2,82.6c1.7,0.1,3.1-1.2,3.2-2.8
		c0.1-1.7-1.2-3.1-2.8-3.2c-0.1,0-0.2,0-0.3,0H4.1v6H6.2L6.2,82.6z M6.2,81.5H5.1v-3.8h1.1c1-0.1,1.8,0.7,1.9,1.6c0,0.1,0,0.2,0,0.3
		c0,1-0.7,1.8-1.7,1.9C6.3,81.5,6.3,81.5,6.2,81.5z M13.1,82.6c1.7,0,3.1-1.4,3.1-3.1c0-1.7-1.4-3.1-3.1-3.1s-3.1,1.4-3.1,3.1
		C10.1,81.3,11.4,82.6,13.1,82.6z M13.1,81.5c-1.1,0.1-2-0.7-2.1-1.8c-0.1-1.1,0.7-2,1.8-2.1c1.1-0.1,2,0.7,2.1,1.8
		c0,0.1,0,0.1,0,0.2c0.1,1-0.7,1.9-1.6,1.9C13.2,81.5,13.2,81.5,13.1,81.5z M20.2,82.6c1,0,2-0.5,2.5-1.5l-1.1-0.5
		c-0.3,0.5-0.8,0.9-1.4,0.9c-1.1,0-1.9-0.9-1.9-2c0-1,0.9-1.9,1.9-1.9c0.6,0,1.1,0.3,1.4,0.9l1.1-0.5c-0.5-0.9-1.4-1.5-2.5-1.4
		c-1.7,0-3.1,1.4-3.1,3.1C17.1,81.3,18.5,82.6,20.2,82.6C20.2,82.6,20.2,82.6,20.2,82.6L20.2,82.6z"/>
</g>
<g>
	<g>
		<path class="st0" d="M22.8,110H8.4c-1.1,0-2,0.9-2,2V143c0,1.1,0.9,2,2,2H32c1.1,0,2-0.9,2-2v-23.3L22.8,110z"/>
		<path class="st1" d="M28.6,115.1l-5.8-5.1v5.9c0,2.1,1.5,3.8,3.4,3.8H34L28.6,115.1z"/>
		<path class="st5" d="M26.1,139.9H0.7c-0.4,0-0.7-0.3-0.7-0.7v-11c0-0.4,0.3-0.7,0.7-0.7h25.4c0.4,0,0.7,0.3,0.7,0.7v11
			C26.8,139.6,26.5,139.9,26.1,139.9z"/>
	</g>
	<path id="JPG_00000095319859547609960230000012022744590580930999_" class="st3" d="M5.9,137.1c1,0.1,1.9-0.6,2-1.6
		c0-0.1,0-0.3,0-0.4v-4H6.8v4c0,0.5-0.3,0.9-0.8,1c0,0-0.1,0-0.1,0c-0.4,0-0.7-0.2-1-0.4l-0.6,1C4.8,136.9,5.3,137.1,5.9,137.1z
		 M10.9,137v-2.1h1.9c1.1,0,2-0.8,2-1.8c0-0.1,0-0.1,0-0.2c0-1-0.8-1.9-1.8-1.9c-0.1,0-0.1,0-0.2,0H9.9v6L10.9,137L10.9,137z
		 M12.7,133.9h-1.8V132h1.8c0.5,0,0.9,0.3,1,0.8c0,0,0,0.1,0,0.1C13.7,133.4,13.3,133.9,12.7,133.9
		C12.8,133.9,12.8,133.9,12.7,133.9L12.7,133.9z M19.1,137c1,0,1.9-0.4,2.5-1.1V134h-2.7v0.9h1.4v0.5c-0.4,0.3-0.8,0.5-1.3,0.5
		c-1.1-0.1-1.9-1-1.8-2.1c0.1-1,0.8-1.8,1.8-1.8c0.6,0,1.1,0.3,1.4,0.8l1.1-0.6c-0.5-0.9-1.5-1.4-2.5-1.3c-1.7-0.1-3.2,1.2-3.3,2.9
		s1.2,3.2,2.9,3.3C18.8,137.1,19,137.1,19.1,137L19.1,137z"/>
</g>
<g>
	<g>
		<path class="st0" d="M22.8,165.2H8.4c-1.1,0-2,0.9-2,2v31.1c0,1.1,0.9,2,2,2H32c1.1,0,2-0.9,2-2v-23.3L22.8,165.2z"/>
		<path class="st1" d="M28.6,170.3l-5.8-5.1v5.9c0,2.1,1.5,3.8,3.4,3.8H34L28.6,170.3z"/>
		<path class="st6" d="M26.1,195.1H0.7c-0.4,0-0.7-0.3-0.7-0.7v-11c0-0.4,0.3-0.7,0.7-0.7h25.4c0.4,0,0.7,0.3,0.7,0.7v11
			C26.8,194.8,26.5,195.1,26.1,195.1z"/>
	</g>
	<path id="PNG_00000046299373173669062590000001423244783484767897_" class="st3" d="M6.2,191.9v-2h2.1c1.1,0,2-0.9,2-2
		c0-1.1-0.9-2-2-2c0,0,0,0,0,0H5.1v6L6.2,191.9L6.2,191.9z M8.1,188.8H6.2V187c0,0,1.4,0,1.9,0c0.4,0,1-0.1,1,1
		C9.1,188.6,8.7,188.8,8.1,188.8z M16.2,191.9v-6h-1v3.8l-2.9-3.8h-1.1v6h1.1V188l3,3.9H16.2L16.2,191.9z M20.3,192
		c1,0,1.9-0.4,2.5-1.1v-1.9h-2.7v1h1.4v0.5c-0.4,0.3-0.8,0.5-1.3,0.5c-1.1,0-1.9-1-1.9-2c0-1,0.9-1.8,1.9-1.9c0.6,0,1.1,0.3,1.4,0.8
		l1.1-0.6c-0.5-0.9-1.5-1.4-2.5-1.3c-1.7-0.1-3.2,1.2-3.3,2.9c-0.1,1.7,1.2,3.2,2.9,3.3C20,192,20.1,192,20.3,192L20.3,192z"/>
</g>
<g>
	<g>
		<path class="st0" d="M22.8,219.5H8.4c-1.1,0-2,0.9-2,2v31.1c0,1.1,0.9,2,2,2H32c1.1,0,2-0.9,2-2v-23.3L22.8,219.5z"/>
		<path class="st1" d="M28.6,224.5l-5.8-5.1v5.9c0,2.1,1.5,3.8,3.4,3.8H34L28.6,224.5z"/>
		<path class="st7" d="M26.1,249.3H0.7c-0.4,0-0.7-0.3-0.7-0.7v-11c0-0.4,0.3-0.7,0.7-0.7h25.4c0.4,0,0.7,0.3,0.7,0.7v11
			C26.8,249,26.5,249.3,26.1,249.3z"/>
	</g>
	<path id="PPT_00000080204399666941609780000002292954561896453042_" class="st3" d="M5.9,246.1v-2h2.1c1.1,0,2-0.8,2-1.9
		c0,0,0-0.1,0-0.1c0-1-0.8-1.9-1.8-1.9c-0.1,0-0.1,0-0.2,0H4.9v6L5.9,246.1L5.9,246.1z M7.8,243h-2v-1.8h2c0.5,0,0.9,0.4,0.9,0.8
		c0,0,0,0,0,0C8.7,242.6,8.3,243,7.8,243C7.9,243,7.8,243,7.8,243z M19.8,246.1v-5h2v-1h-5v1h2v5H19.8L19.8,246.1z M11.9,246.1v-2h2
		c1.1,0,2-0.8,2-1.9c0,0,0-0.1,0-0.1c0-1-0.8-1.9-1.8-1.9c-0.1,0-0.1,0-0.2,0h-3v6L11.9,246.1L11.9,246.1z M13.8,243h-1.9v-1.8h1.9
		c0.5,0,0.9,0.4,0.9,0.8c0,0,0,0,0,0C14.7,242.6,14.3,243,13.8,243C13.8,243,13.8,243,13.8,243L13.8,243z"/>
</g>
<g>
	<g>
		<path class="st0" d="M22.8,275H8.4c-1.1,0-2,0.9-2,2V308c0,1.1,0.9,2,2,2H32c1.1,0,2-0.9,2-2v-23.3L22.8,275z"/>
		<path class="st1" d="M28.6,280.1l-5.8-5.1v5.9c0,2.1,1.5,3.8,3.4,3.8H34L28.6,280.1z"/>
		<path class="st8" d="M26.1,304.9H0.7c-0.4,0-0.7-0.3-0.7-0.7v-11c0-0.4,0.3-0.7,0.7-0.7h25.4c0.4,0,0.7,0.3,0.7,0.7v11
			C26.8,304.6,26.5,304.9,26.1,304.9z"/>
	</g>
	<path id="TXT_00000076591110882730543530000012220861219429419189_" class="st3" d="M7.4,301.7v-5h1.9v-1H4.5v1h1.9v5L7.4,301.7
		L7.4,301.7z M16.5,301.7l-2.2-3.1l2-2.9h-1.5l-1.4,2l-1.4-2.1h-1.5l2,2.9l-2.2,3.1H12l1.5-2.2l1.5,2.2L16.5,301.7L16.5,301.7z
		 M20.4,301.7v-5h1.9v-1h-4.8v1h1.9v5L20.4,301.7L20.4,301.7z"/>
</g>
<g>
	<g>
		<path class="st0" d="M22.8,329.1H8.4c-1.1,0-2,0.9-2,2v31.1c0,1.1,0.9,2,2,2H32c1.1,0,2-0.9,2-2v-23.3L22.8,329.1z"/>
		<path class="st1" d="M28.6,334.2l-5.8-5.1v5.9c0,2.1,1.5,3.8,3.4,3.8H34L28.6,334.2z"/>
		<path class="st9" d="M26.1,359H0.7c-0.4,0-0.7-0.3-0.7-0.7v-11c0-0.4,0.3-0.7,0.7-0.7h25.4c0.4,0,0.7,0.3,0.7,0.7v11
			C26.8,358.7,26.5,359,26.1,359z"/>
	</g>
	<path id="TIF_00000160892390903359507440000009719516154340708232_" class="st3" d="M9.2,355.8v-5h2v-1h-5v1h2v5H9.2L9.2,355.8z
		 M14.2,355.8v-6h-1v6H14.2z M17.2,355.8v-3h2.9v-1h-2.9v-1h3v-1h-4v6H17.2z"/>
</g>
<g>
	<g>
		<path class="st0" d="M22.8,386.4H8.4c-1.1,0-2,0.9-2,2v31.1c0,1.1,0.9,2,2,2H32c1.1,0,2-0.9,2-2v-23.3L22.8,386.4z"/>
		<path class="st1" d="M28.6,391.5l-5.8-5.1v5.9c0,2.1,1.5,3.8,3.4,3.8H34L28.6,391.5z"/>
		<path class="st10" d="M26.1,416.3H0.7c-0.4,0-0.7-0.3-0.7-0.7v-11c0-0.4,0.3-0.7,0.7-0.7h25.4c0.4,0,0.7,0.3,0.7,0.7v11
			C26.8,416,26.5,416.3,26.1,416.3z"/>
	</g>
	<path id="XLS_00000097492142690413941080000014763923874139493521_" class="st3" d="M11.1,413.1L9,410.1l2-2.9H9.5l-1.4,2.1
		l-1.4-2.1H5.2l2,2.9l-2.2,3.1h1.5l1.5-2.2l1.5,2.2H11.1L11.1,413.1z M16.1,413.1v-1h-3v-5h-1v6H16.1L16.1,413.1z M19.3,413.2
		c1.6,0,2.4-0.8,2.4-1.9c0-2.2-3.4-1.6-3.4-2.5c0-0.4,0.4-0.7,0.8-0.6c0,0,0.1,0,0.1,0c0.6,0,1.2,0.2,1.7,0.6l0.7-0.9
		c-0.6-0.6-1.5-0.9-2.3-0.8c-1.1-0.2-2.1,0.6-2.2,1.7c0,0,0,0.1,0,0.1c0,2.2,3.4,1.5,3.4,2.6c-0.1,0.5-0.5,0.8-1,0.7c0,0,0,0,0,0
		c-0.7,0-1.4-0.3-1.9-0.8l-0.7,1C17.5,412.9,18.4,413.2,19.3,413.2L19.3,413.2z"/>
</g>
<g>
	<g>
		<path class="st0" d="M22.8,440H8.4c-1.1,0-2,0.9-2,2V473c0,1.1,0.9,2,2,2H32c1.1,0,2-0.9,2-2v-23.3L22.8,440z"/>
		<path class="st1" d="M28.6,445.1l-5.8-5.1v5.9c0,2.1,1.5,3.8,3.4,3.8H34L28.6,445.1z"/>
		<path class="st11" d="M26.1,469.9H0.7c-0.4,0-0.7-0.3-0.7-0.7v-11c0-0.4,0.3-0.7,0.7-0.7h25.4c0.4,0,0.7,0.3,0.7,0.7v11
			C26.8,469.6,26.5,469.9,26.1,469.9z"/>
	</g>
	<path id="RTF_00000142148529813791109900000018236903267072092813_" class="st3" d="M8.5,464.6l1.4,2.1H8.5l-1.2-2c0,0,0.6,0,0.7,0
		C8.2,464.7,8.5,464.6,8.5,464.6z M13.8,466.7v-5h2v-1h-5v1h2v5H13.8L13.8,466.7z M17.8,466.7v-3h2.9v-1h-2.9v-1h3v-1h-4v6H17.8
		L17.8,466.7z M5.8,466.7v-2h2c1.1,0,2-0.9,2-1.9c0,0,0-0.1,0-0.1c0-1-0.8-1.9-1.8-1.9c-0.1,0-0.1,0-0.2,0h-3v6H5.8z M7.7,463.5H5.8
		v-1.8h1.9c0.5,0,0.9,0.4,0.9,0.8c0,0,0,0,0,0C8.6,463.1,8.2,463.5,7.7,463.5C7.7,463.5,7.7,463.5,7.7,463.5L7.7,463.5z"/>
</g>
<g>
	<g>
		<path class="st0" d="M22.8,495H8.4c-1.1,0-2,0.9-2,2V528c0,1.1,0.9,2,2,2H32c1.1,0,2-0.9,2-2v-23.3L22.8,495z"/>
		<path class="st1" d="M28.6,500.1l-5.8-5.1v5.9c0,2.1,1.5,3.8,3.4,3.8H34L28.6,500.1z"/>
		<path class="st12" d="M26.1,524.9H0.7c-0.4,0-0.7-0.3-0.7-0.7v-11c0-0.4,0.3-0.7,0.7-0.7h25.4c0.4,0,0.7,0.3,0.7,0.7v11
			C26.8,524.6,26.5,524.9,26.1,524.9z"/>
	</g>
	<path id="FILE_00000095328364914123042130000018397381780384262054_" class="st3" d="M10.8,521.7v-6h-1v6H10.8z M15.8,521.7v-1h-3
		v-5h-1v6H15.8z M20.8,521.7v-1h-3v-2h3v-1h-3v-1h3v-1h-4v6H20.8z M5.8,521.7v-3h3v-1h-3v-1h3v-1h-4v6L5.8,521.7L5.8,521.7z"/>
</g>
</svg>
