<svg id="event-type" width="9" height="9" viewBox="0 0 9 9" fill="none" xmlns="http://www.w3.org/2000/svg">
<path d="M3.71588 6.36314L5.95913 4.60026C5.97413 4.58836 5.98624 4.57322 5.99457 4.55598C6.00289 4.53874 6.00722 4.51984 6.00722 4.5007C6.00722 4.48155 6.00289 4.46266 5.99457 4.44542C5.98624 4.42818 5.97413 4.41304 5.95913 4.40114L3.71588 2.63714C3.63263 2.57189 3.51001 2.63039 3.51001 2.73614V6.26301C3.51001 6.36876 3.63263 6.42839 3.71588 6.36314Z" fill="black"/>
<path d="M8.64 0H0.36C0.160875 0 0 0.160875 0 0.36V8.64C0 8.83913 0.160875 9 0.36 9H8.64C8.83913 9 9 8.83913 9 8.64V0.36C9 0.160875 8.83913 0 8.64 0ZM8.19 8.19H0.81V0.81H8.19V8.19Z" fill="black"/>
</svg>
