<svg id="event-clock" width="9" height="9" viewBox="0 0 9 9" fill="none" xmlns="http://www.w3.org/2000/svg">
<path d="M4.5 1.96875C4.5 1.89416 4.47037 1.82262 4.41762 1.76988C4.36488 1.71713 4.29334 1.6875 4.21875 1.6875C4.14416 1.6875 4.07262 1.71713 4.01988 1.76988C3.96713 1.82262 3.9375 1.89416 3.9375 1.96875V5.0625C3.93752 5.11207 3.95064 5.16076 3.97553 5.20364C4.00042 5.24651 4.0362 5.28204 4.07925 5.30662L6.048 6.43162C6.11261 6.46654 6.18831 6.4748 6.25893 6.45464C6.32955 6.43448 6.38948 6.3875 6.42591 6.32374C6.46235 6.25997 6.4724 6.18449 6.45392 6.11341C6.43543 6.04234 6.38988 5.98131 6.327 5.94338L4.5 4.89937V1.96875Z" fill="white"/>
<path d="M4.5 9C5.69347 9 6.83807 8.52589 7.68198 7.68198C8.52589 6.83807 9 5.69347 9 4.5C9 3.30653 8.52589 2.16193 7.68198 1.31802C6.83807 0.474106 5.69347 0 4.5 0C3.30653 0 2.16193 0.474106 1.31802 1.31802C0.474106 2.16193 0 3.30653 0 4.5C0 5.69347 0.474106 6.83807 1.31802 7.68198C2.16193 8.52589 3.30653 9 4.5 9ZM8.4375 4.5C8.4375 5.54429 8.02266 6.54581 7.28423 7.28423C6.54581 8.02266 5.54429 8.4375 4.5 8.4375C3.45571 8.4375 2.45419 8.02266 1.71577 7.28423C0.977342 6.54581 0.5625 5.54429 0.5625 4.5C0.5625 3.45571 0.977342 2.45419 1.71577 1.71577C2.45419 0.977342 3.45571 0.5625 4.5 0.5625C5.54429 0.5625 6.54581 0.977342 7.28423 1.71577C8.02266 2.45419 8.4375 3.45571 8.4375 4.5Z" fill="white"/>
</svg>
