<svg id="event-place" width="7" height="10" viewBox="0 0 7 10" fill="none" xmlns="http://www.w3.org/2000/svg">
<path d="M5.93017 5.215C5.6245 5.8345 5.21033 6.45167 4.78683 7.00583C4.38509 7.52828 3.95552 8.02872 3.5 8.505C3.04447 8.02873 2.6149 7.52828 2.21317 7.00583C1.78967 6.45167 1.3755 5.8345 1.06983 5.215C0.760667 4.58908 0.583333 4.00283 0.583333 3.5C0.583333 2.72645 0.890624 1.98459 1.43761 1.43761C1.98459 0.890624 2.72645 0.583333 3.5 0.583333C4.27355 0.583333 5.01541 0.890624 5.56239 1.43761C6.10938 1.98459 6.41667 2.72645 6.41667 3.5C6.41667 4.00283 6.23875 4.58908 5.93017 5.215ZM3.5 9.33333C3.5 9.33333 7 6.0165 7 3.5C7 2.57174 6.63125 1.6815 5.97487 1.02513C5.3185 0.368749 4.42826 0 3.5 0C2.57174 0 1.6815 0.368749 1.02513 1.02513C0.368749 1.6815 1.38321e-08 2.57174 0 3.5C0 6.0165 3.5 9.33333 3.5 9.33333Z" fill="white"/>
<path d="M3.5 4.66667C3.19058 4.66667 2.89383 4.54375 2.67504 4.32496C2.45625 4.10617 2.33333 3.80942 2.33333 3.5C2.33333 3.19058 2.45625 2.89383 2.67504 2.67504C2.89383 2.45625 3.19058 2.33333 3.5 2.33333C3.80942 2.33333 4.10617 2.45625 4.32496 2.67504C4.54375 2.89383 4.66667 3.19058 4.66667 3.5C4.66667 3.80942 4.54375 4.10617 4.32496 4.32496C4.10617 4.54375 3.80942 4.66667 3.5 4.66667ZM3.5 5.25C3.96413 5.25 4.40925 5.06563 4.73744 4.73744C5.06563 4.40925 5.25 3.96413 5.25 3.5C5.25 3.03587 5.06563 2.59075 4.73744 2.26256C4.40925 1.93437 3.96413 1.75 3.5 1.75C3.03587 1.75 2.59075 1.93437 2.26256 2.26256C1.93437 2.59075 1.75 3.03587 1.75 3.5C1.75 3.96413 1.93437 4.40925 2.26256 4.73744C2.59075 5.06563 3.03587 5.25 3.5 5.25Z" fill="white"/>
</svg>
