<svg width="10" height="10" viewBox="0 0 10 10" fill="none" xmlns="http://www.w3.org/2000/svg">
<path d="M6.875 3.75C6.875 4.24728 6.67746 4.72419 6.32583 5.07583C5.97419 5.42746 5.49728 5.625 5 5.625C4.50272 5.625 4.02581 5.42746 3.67417 5.07583C3.32254 4.72419 3.125 4.24728 3.125 3.75C3.125 3.25272 3.32254 2.77581 3.67417 2.42417C4.02581 2.07254 4.50272 1.875 5 1.875C5.49728 1.875 5.97419 2.07254 6.32583 2.42417C6.67746 2.77581 6.875 3.25272 6.875 3.75Z" fill="#C39367"/>
<path fill-rule="evenodd" clip-rule="evenodd" d="M0 5C0 3.67392 0.526784 2.40215 1.46447 1.46447C2.40215 0.526784 3.67392 0 5 0C6.32608 0 7.59785 0.526784 8.53553 1.46447C9.47322 2.40215 10 3.67392 10 5C10 6.32608 9.47322 7.59785 8.53553 8.53553C7.59785 9.47322 6.32608 10 5 10C3.67392 10 2.40215 9.47322 1.46447 8.53553C0.526784 7.59785 0 6.32608 0 5ZM5 0.625C4.17611 0.625044 3.36898 0.857727 2.6715 1.29627C1.97402 1.73481 1.41455 2.36138 1.05748 3.10387C0.700404 3.84636 0.560242 4.67459 0.653124 5.49322C0.746006 6.31186 1.06816 7.08763 1.5825 7.73125C2.02625 7.01625 3.00312 6.25 5 6.25C6.99687 6.25 7.97313 7.01562 8.4175 7.73125C8.93184 7.08763 9.25399 6.31186 9.34688 5.49322C9.43976 4.67459 9.2996 3.84636 8.94252 3.10387C8.58545 2.36138 8.02598 1.73481 7.3285 1.29627C6.63102 0.857727 5.82389 0.625044 5 0.625Z" fill="#C39367"/>
</svg>
