<svg width="11" height="11" viewBox="0 0 11 11" fill="none" xmlns="http://www.w3.org/2000/svg">
<path d="M5.5 10C7.98536 10 10 7.98535 10 5.5C10 3.01465 7.98536 1 5.5 1C3.01465 1 1 3.01465 1 5.5C0.99899 6.39012 1.26278 7.26043 1.7578 8.0002C1.8127 8.08188 1.70988 8.5987 1.45 9.55C2.40153 9.29013 2.91813 9.1873 2.9998 9.2422C3.73958 9.73723 4.60988 10.001 5.5 10V10Z" stroke="#C39367" stroke-linejoin="round"/>
<path d="M3.83594 4.55957H7.61144" stroke="#C39367" stroke-linecap="round" stroke-linejoin="round"/>
<path d="M5.01529 3.64111L4.35986 7.35901" stroke="#C39367" stroke-linecap="round" stroke-linejoin="round"/>
<path d="M6.59048 3.64111L5.93506 7.35901" stroke="#C39367" stroke-linecap="round" stroke-linejoin="round"/>
<path d="M3.38623 6.3999H7.16173" stroke="#C39367" stroke-linecap="round" stroke-linejoin="round"/>
</svg>
