<svg fill="none" xmlns="http://www.w3.org/2000/svg">
<symbol id="icon" viewBox="0 0 26 26">
<path d="M17.4243 14.8074C17.0791 14.4341 16.6914 14.1024 16.2692 13.8192C17.9731 12.5018 19.1671 10.6341 19.6477 8.53471C19.6832 8.38299 19.6883 8.22576 19.6628 8.07205C19.6373 7.91834 19.5816 7.7712 19.499 7.63909C19.4164 7.50697 19.3085 7.3925 19.1815 7.30225C19.0545 7.212 18.9109 7.14775 18.7589 7.11321C18.607 7.07867 18.4497 7.07452 18.2962 7.10098C18.1426 7.12745 17.9958 7.18402 17.8642 7.26744C17.7326 7.35085 17.6188 7.45947 17.5294 7.58703C17.4399 7.7146 17.3765 7.8586 17.3429 8.01074C17.1191 8.99279 16.6837 9.9142 16.0672 10.7107C15.4507 11.5072 14.6678 12.1597 13.7733 12.6225V8.27509C13.766 8.18812 13.7486 8.10229 13.7216 8.01931C13.7138 7.95098 13.7002 7.88344 13.6809 7.81742C13.6304 7.70994 13.564 7.61075 13.4837 7.52325C13.4626 7.49815 13.4519 7.46505 13.4288 7.44183C13.3422 7.3619 13.2442 7.29536 13.138 7.24439C13.1078 7.22831 13.0854 7.20111 13.0537 7.18766C12.9632 7.1575 12.8694 7.1382 12.7743 7.13017C12.7156 7.11299 12.6556 7.10066 12.5949 7.09331L11.8216 7.09091H11.8182C11.5417 7.08959 11.2736 7.1857 11.0609 7.36238C10.8483 7.53905 10.7047 7.78499 10.6553 8.05702C10.6059 8.32905 10.6539 8.60978 10.7909 8.84993C10.9279 9.09007 11.1451 9.27429 11.4044 9.37022V15.1501C9.53164 13.206 8.29154 10.7404 7.84744 8.07773C7.82152 7.92473 7.76572 7.77833 7.68322 7.64689C7.60073 7.51546 7.49315 7.40156 7.36664 7.3117C7.24012 7.22183 7.09715 7.15777 6.94587 7.12317C6.7946 7.08856 6.63799 7.08409 6.48499 7.11001C6.33199 7.13593 6.18559 7.19173 6.05416 7.27422C5.92272 7.35672 5.80882 7.46429 5.71896 7.59081C5.6291 7.71732 5.56504 7.8603 5.53043 8.01157C5.49582 8.16285 5.49135 8.31945 5.51727 8.47245C6.20791 12.5882 8.503 16.2619 11.899 18.6876C11.9474 18.7166 11.9979 18.742 12.05 18.7637C12.0909 18.7878 12.1334 18.8092 12.177 18.8278C12.309 18.8805 12.4494 18.9089 12.5914 18.9115C12.7653 18.9093 12.9365 18.8682 13.0923 18.7911C13.1041 18.7855 13.1176 18.7881 13.1293 18.7822C13.2337 18.7278 13.3294 18.6579 13.413 18.575C13.4298 18.5587 13.4411 18.5385 13.457 18.5212C13.5332 18.4374 13.5969 18.343 13.6459 18.2409C13.6624 18.207 13.6774 18.1746 13.6906 18.139C13.7425 18.0086 13.7705 17.8699 13.7733 17.7296L13.7738 15.2171C14.5061 15.4321 15.1659 15.8427 15.6822 16.4047L17.6297 18.5282C17.7345 18.643 17.8609 18.736 18.0016 18.8018C18.1424 18.8677 18.2948 18.9051 18.45 18.912C18.6052 18.9189 18.7603 18.8951 18.9063 18.8419C19.0524 18.7888 19.1865 18.7074 19.301 18.6023C19.4155 18.4973 19.5082 18.3707 19.5737 18.2298C19.6392 18.0889 19.6763 17.9365 19.6829 17.7812C19.6894 17.626 19.6652 17.471 19.6118 17.3251C19.5583 17.1792 19.4766 17.0452 19.3713 16.931L17.4243 14.8074ZM16.6314 0H9.38068C2.10396 0 0 2.10165 0 9.36799V16.6193C0 23.896 2.10107 26 9.36857 26H16.6193C23.896 26 26 23.8983 26 16.632V9.38068C26 2.10396 23.8989 0 16.6314 0ZM23.6364 16.632C23.6364 22.5884 22.5873 23.6364 16.6193 23.6364H9.36857C3.411 23.6364 2.36364 22.5873 2.36364 16.6193V9.36799C2.36364 3.41158 3.41274 2.36364 9.38068 2.36364H16.6314C22.589 2.36364 23.6364 3.41274 23.6364 9.38068V16.632Z" stroke="none"/>
</symbol>
</svg>
