<svg fill="none" xmlns="http://www.w3.org/2000/svg">
<symbol id="icon" viewBox="0 0 18 19">
<path d="M13.6833 18.0831C13.4936 18.1207 13.3043 18.1655 13.1144 18.1935C12.0522 18.3475 11.0203 18.2006 10.0103 17.865C8.48401 17.3618 7.17774 16.4923 5.97212 15.4591C4.50461 14.2229 3.20996 12.7951 2.12297 11.214C1.42898 10.2241 0.909085 9.12292 0.585684 7.95802C0.30358 6.88653 0.216795 5.80423 0.514885 4.71343C0.746694 3.87458 1.18452 3.13926 1.69582 2.44664C2.12873 1.86317 2.58639 1.29667 3.16933 0.853048C3.83572 0.344263 4.58616 0.333575 5.28546 0.799903C5.72132 1.10598 6.09816 1.48844 6.39775 1.92878C6.94936 2.69572 7.52243 3.44946 7.91916 4.31545C8.12874 4.75409 8.25255 5.22874 8.28392 5.71387C8.30402 6.00947 8.25727 6.30581 8.14715 6.58088C8.03704 6.85595 7.86638 7.10269 7.64784 7.30278L6.865 8.05889C6.3865 8.52227 6.29392 8.95497 6.63741 9.5261C7.23299 10.5384 8.11429 11.3522 9.17072 11.8655C9.64864 12.0989 10.0061 12.0478 10.378 11.6369C10.5914 11.4025 10.8273 11.1885 11.0486 10.962C11.7149 10.2791 12.5118 10.127 13.3826 10.4346C13.8396 10.5821 14.2746 10.7904 14.676 11.0539C15.4874 11.6217 16.2672 12.2356 17.0344 12.8605C17.4206 13.1759 17.6897 13.6118 17.7986 14.0984C17.9393 14.7111 17.7523 15.2459 17.3319 15.6939C16.6698 16.3956 15.9043 16.992 15.0619 17.4624C14.9162 17.5446 14.7721 17.631 14.6272 17.7153L13.6833 18.0831ZM2.183 8.4541C2.454 9.15579 2.80836 9.82237 3.23846 10.4395C4.36949 12.0866 5.74005 13.5557 7.30484 14.7982C8.36063 15.6456 9.50163 16.3485 10.8262 16.697C11.7499 16.9416 12.6771 17.0217 13.5947 16.6641C14.6341 16.2591 15.5044 15.6031 16.2959 14.8352C16.5433 14.5949 16.5433 14.4304 16.3493 14.1468C16.3063 14.0744 16.2533 14.0083 16.1918 13.9506C15.5377 13.4232 14.8873 12.887 14.2177 12.3789C13.8262 12.0757 13.381 11.8492 12.9054 11.7113C12.5612 11.6132 12.2577 11.6565 12.0036 11.9418C11.792 12.1778 11.5566 12.3929 11.3349 12.6183C10.6617 13.3051 9.87651 13.5494 8.94225 13.2436C8.36436 13.0434 7.82902 12.7369 7.36385 12.3399C6.59565 11.7154 5.89579 11.0304 5.42035 10.1455C4.86664 9.12179 5.01262 8.00683 5.82027 7.19027C6.08124 6.92895 6.34138 6.66554 6.62015 6.4251C6.74275 6.32818 6.83447 6.19766 6.8841 6.04947C6.93373 5.90129 6.93912 5.74185 6.89962 5.59065C6.87026 5.44465 6.83043 5.30095 6.78043 5.16066C6.50601 4.40059 6.04076 3.75598 5.56549 3.11045C5.30139 2.74376 5.01129 2.39652 4.69742 2.07141C4.37393 1.74401 4.15638 1.75986 3.82778 2.07414C3.28839 2.59018 2.81536 3.17138 2.41959 3.80431C2.0247 4.44189 1.72685 5.10816 1.70304 5.87563C1.67805 6.75946 1.84167 7.63846 2.183 8.4541Z" fill="white"/>
</symbol>
</svg>
