<svg fill="none" xmlns="http://www.w3.org/2000/svg">
<symbol id="icon" viewBox="0 0 27 25">
<path d="M26.0983 0.589334C25.7488 0.294633 25.3271 0.101491 24.878 0.0304605C24.4289 -0.0405696 23.9691 0.0131709 23.5478 0.185963L1.55335 9.18794C1.08299 9.38412 0.682598 9.72068 0.405329 10.1529C0.128061 10.5852 -0.0129757 11.0927 0.000938845 11.6081C0.0148534 12.1235 0.183061 12.6225 0.483236 13.0387C0.783412 13.455 1.20136 13.7688 1.6816 13.9386L6.13058 15.5072L8.61035 23.8203C8.64405 23.9313 8.69296 24.037 8.75564 24.1343C8.76515 24.1492 8.77857 24.1603 8.78868 24.1748C8.8611 24.2772 8.94861 24.3678 9.04817 24.4433C9.07648 24.4651 9.10359 24.4856 9.13386 24.5051C9.25037 24.5834 9.3794 24.6407 9.51522 24.6744L9.52975 24.6757L9.53798 24.6792C9.61964 24.6961 9.70275 24.7046 9.78609 24.7047C9.7941 24.7047 9.80122 24.7009 9.80916 24.7007C9.93491 24.6985 10.0596 24.6765 10.1787 24.6356C10.2064 24.6261 10.2301 24.6101 10.257 24.5985C10.3459 24.5612 10.43 24.5133 10.5078 24.456C10.57 24.4028 10.6323 24.3496 10.6946 24.2965L14.011 20.5847L18.9573 24.469C19.3928 24.8127 19.9288 24.9995 20.4807 25C21.059 24.9992 21.6194 24.797 22.0681 24.4271C22.5167 24.0572 22.8263 23.5423 22.9449 22.9685L26.9492 3.04122C27.0399 2.59272 27.0087 2.12765 26.8588 1.69577C26.7089 1.26388 26.446 0.881433 26.0983 0.589334ZM10.2727 15.9033C10.1026 16.0751 9.98623 16.2941 9.93834 16.5327L9.55848 18.4039L8.5962 15.1777L13.5855 12.5438L10.2727 15.9033ZM20.4615 22.5019L14.6162 17.9116C14.3717 17.7201 14.0649 17.6289 13.7571 17.6564C13.4492 17.6839 13.1628 17.8279 12.9551 18.0599L11.8929 19.2483L12.2683 17.3989L20.9613 8.58647C21.1688 8.37641 21.2952 8.09796 21.3177 7.80156C21.3401 7.50516 21.2571 7.2104 21.0837 6.9707C20.9102 6.73099 20.6578 6.56217 20.3722 6.49483C20.0866 6.42748 19.7866 6.46606 19.5267 6.60358L7.05075 13.1885L2.47983 11.4928L24.5449 2.54425L20.4615 22.5019Z" stroke="none"/>
</symbol>
</svg>
