<svg viewBox="0 0 77 19" fill="none" xmlns="http://www.w3.org/2000/svg">
<symbol id="icon" viewBox="0 0 77 19">
<path d="M10.98 14H13.28C16.24 13.9 17.76 11.26 17.76 8.54C17.76 3.8 14.04 0.7 9.16 0.7C3.98 0.7 0.14 4.58 0.14 9.5C0.14 14.62 3.98 18.32 9.16 18.32C9.94 18.32 10.7 18.22 11.42 18.06L11.32 15.92C10.64 16.08 9.92 16.16 9.16 16.16C5.38 16.16 2.3 13.4 2.3 9.5C2.3 5.36 5.4 2.84 9.16 2.84C13.16 2.84 15.62 5.44 15.62 8.54C15.62 10.58 14.78 11.86 13.68 11.86H13.28V5.86C12.32 5.26 10.78 4.78 9.24 4.78C6.2 4.78 4.08 6.88 4.08 9.5C4.08 12.32 5.8 14.22 8.5 14.22C9.5 14.22 10.38 13.84 10.98 13.28V14ZM8.92 12.08C7.52 12.08 6.54 11.18 6.54 9.6C6.54 8.18 7.46 6.94 9.22 6.94C9.86 6.94 10.44 7.12 10.98 7.38V11.14C10.52 11.64 9.74 12.08 8.92 12.08ZM33.8619 8.12C33.8619 5.66 32.6219 4.84 30.9819 4.84C29.5819 4.84 28.5819 5.44 27.9419 6.28C27.6219 5.46 26.7019 4.84 25.3219 4.84C24.2019 4.84 23.1419 5.28 22.5019 6V5H20.2019V14H22.5019V7.96C22.9019 7.36 23.5619 7 24.3819 7C25.3619 7 25.8819 7.62 25.8819 8.56V14H28.1819V8.7C28.1819 8.5 28.1619 8.18 28.1619 8.04C28.4819 7.42 29.1619 7 30.0219 7C31.1019 7 31.5619 7.6 31.5619 8.72V14H33.8619V8.12ZM36.198 13.22C37.018 13.74 38.538 14.22 40.018 14.22C43.178 14.22 45.158 12.32 45.158 9.36C45.158 6.7 43.558 4.78 40.878 4.78C39.918 4.78 39.058 5.12 38.498 5.56V-9.53674e-07H36.198V13.22ZM40.338 6.94C41.638 6.94 42.698 7.8 42.698 9.52C42.698 11.14 41.578 12.08 40.138 12.08C39.498 12.08 38.998 11.94 38.498 11.62V7.8C38.878 7.36 39.538 6.94 40.338 6.94ZM47.155 14H49.455V7.86C49.995 7.32 50.635 7 51.415 7C52.695 7 53.435 7.68 53.435 9.12V14H55.735V8.72C55.735 5.9 54.235 4.84 52.035 4.84C50.955 4.84 49.995 5.32 49.455 5.9V5H47.155V14ZM62.633 11.46C62.633 12.02 62.113 12.3 61.453 12.3C60.553 12.3 59.193 11.76 58.653 11.18L57.533 12.68C57.953 13.32 59.633 14.22 61.293 14.22C63.493 14.22 64.933 13.12 64.933 11.34C64.933 8.16 60.073 8.98 60.073 7.48C60.073 7.08 60.493 6.7 61.193 6.7C62.153 6.7 63.093 7.14 63.633 7.56L64.493 5.92C63.933 5.4 62.813 4.78 61.073 4.78C59.213 4.78 57.773 5.76 57.773 7.52C57.773 10.8 62.633 10 62.633 11.46ZM66.3997 9.5C66.3997 12.2 68.3197 14.22 71.2997 14.22C74.2797 14.22 76.1997 12.2 76.1997 9.5C76.1997 6.8 74.2797 4.78 71.2997 4.78C68.3197 4.78 66.3997 6.8 66.3997 9.5ZM68.8597 9.5C68.8597 7.94 69.9397 6.94 71.2997 6.94C72.6997 6.94 73.7597 7.98 73.7597 9.5C73.7597 11.06 72.7197 12.08 71.2997 12.08C69.8997 12.08 68.8597 11 68.8597 9.5Z" stroke="none"/>
</symbol>
</svg>
