<svg fill="none" xmlns="http://www.w3.org/2000/svg">
<symbol id="icon" viewBox="0 0 15 25">
<g clip-path="url(#clip0_160_478)">
<path d="M2.38008 25L2.21677 24.9004C1.68155 24.5868 1.29591 24.1571 1.19161 23.5297C1.15669 23.3427 1.16537 23.1501 1.217 22.9669C1.26862 22.7836 1.36181 22.6146 1.48942 22.4727C2.53379 21.2875 3.66462 20.1855 4.77624 19.063C5.22363 18.6116 5.66553 18.1533 6.11018 17.6991C6.13488 17.6732 6.15684 17.6446 6.19252 17.605L5.22089 17.4073C4.22729 17.2027 3.23781 16.9845 2.30597 16.5726C1.57889 16.258 0.927642 15.7931 0.395636 15.2087C-0.128609 14.6331 -0.0888114 13.9416 0.291335 13.3852C0.427203 13.1637 0.61319 12.9767 0.834512 12.8391C1.05583 12.7016 1.30639 12.6172 1.56627 12.5928C1.86707 12.565 2.16724 12.6518 2.40616 12.8355C3.13064 13.3607 3.93556 13.7665 4.78996 14.0371C5.84992 14.3894 6.96789 14.5371 8.08365 14.4722C9.64555 14.3982 11.1536 13.882 12.4299 12.9842C12.619 12.8233 12.8376 12.7001 13.0736 12.6214C13.6774 12.4741 14.3691 12.7687 14.7506 13.3347C14.923 13.5702 15.0139 13.8548 15.0097 14.146C15.0055 14.4371 14.9064 14.7191 14.7273 14.9495C14.4621 15.3167 14.1429 15.6422 13.7804 15.9152C13.0418 16.4604 12.2024 16.8557 11.3101 17.0786C10.569 17.2763 9.81558 17.4264 9.06764 17.5968L8.99216 17.6173C9.02921 17.6623 9.05392 17.6964 9.08274 17.7278C9.79225 18.4656 10.4963 19.2076 11.2127 19.94C11.8673 20.611 12.537 21.2698 13.1944 21.9381C13.3431 22.09 13.4807 22.2522 13.6061 22.4236C14.1797 23.201 13.8586 24.2103 13.0859 24.6481C12.5192 24.97 11.7671 25.0068 11.214 24.4435C10.886 24.108 10.5388 23.793 10.2067 23.4602C9.41256 22.6637 8.61933 21.8653 7.82702 21.0652C7.74056 20.9793 7.64587 20.9015 7.54568 20.8115C7.33983 21.0052 7.13397 21.1893 6.93909 21.3871C6.26252 22.0827 5.5928 22.7851 4.91485 23.4806C4.4049 24.0093 3.85429 24.4977 3.26801 24.9414C3.25034 24.9566 3.23467 24.9741 3.22134 24.9932L2.38008 25Z" stroke="none"/>
<path d="M1.24165 6.36931C1.19828 5.12783 1.57467 3.9077 2.31073 2.90368C3.44019 1.33113 4.97861 0.38459 6.88346 0.0217966C7.0017 0.0124465 7.12034 0.00926078 7.23891 0.0122505C8.16526 -0.0600353 9.02299 0.189554 9.86425 0.548256C11.0417 1.05289 12.0491 1.78393 12.7792 2.84231C13.6122 4.05207 14.0212 5.39959 13.8606 6.86577C13.6067 9.18437 12.447 10.9411 10.3405 12.0144C9.37688 12.5142 8.29312 12.7398 7.20871 12.6664C6.06534 12.5889 4.96494 12.2026 4.02619 11.5493C2.78282 10.6983 1.89902 9.5758 1.4626 8.12736C1.31861 7.65179 1.24555 7.15781 1.24577 6.66118L1.24165 6.36931ZM4.49691 6.38022C4.46672 8.21056 6.13278 9.4476 7.59847 9.38077C7.99671 9.36706 8.38832 9.27534 8.75082 9.11089C9.11333 8.94644 9.4396 8.71247 9.71092 8.42243C9.98224 8.13238 10.1933 7.79196 10.3319 7.42068C10.4706 7.0494 10.5341 6.65457 10.5189 6.25884C10.4283 4.44351 8.87203 3.35513 7.38987 3.39468C5.7842 3.43287 4.46535 4.84176 4.49691 6.38022Z" stroke="none"/>
</g>
<defs>
<clipPath id="clip0_160_478">
<rect width="15" height="25" stroke="none"/>
</clipPath>
</defs>
</symbol>
</svg>
