<svg width="65" height="48" viewBox="0 0 65 48" fill="none" xmlns="http://www.w3.org/2000/svg">
<path d="M64.5507 0L18.5349 0.00392734C18.3503 0.00392734 18.1844 0.116534 18.1164 0.288081L1.01326 46.8281C0.888985 47.1417 1.13459 47.4449 1.42918 47.4449C1.49549 47.4449 1.56387 47.4298 1.63141 47.396L64.7486 14.3351C64.9016 14.2588 64.9973 14.1032 64.9973 13.933L65 0.449683C65 0.20102 64.799 0 64.5507 0V0ZM64.5507 0.337445C64.6122 0.337445 64.662 0.387794 64.662 0.449683L64.6598 13.933C64.6598 13.9755 64.6365 14.0141 64.5923 14.0357L1.48027 47.0941C1.46246 47.1031 1.44515 47.1074 1.42918 47.1074C1.39455 47.1074 1.35807 47.0867 1.33646 47.0546C1.30478 47.0082 1.32172 46.9662 1.33032 46.9446L18.4296 0.412473C18.447 0.369985 18.489 0.341373 18.5349 0.341373L64.5507 0.337445V0.337445Z" fill="#EE3D32"/>
<path d="M17.2938 11.9139L1.02375 46.8043C0.854293 47.1677 1.20868 47.5532 1.58555 47.4173L52.6235 28.8398C52.801 28.7757 52.9193 28.6064 52.9193 28.4179V12.1036C52.9193 11.8554 52.7184 11.6544 52.4701 11.6544H17.701C17.526 11.6544 17.3675 11.7553 17.2938 11.9139V11.9139Z" fill="#EE3D32"/>
<path d="M47.7121 25.1945L47.4547 26.1835V23.3391H46.8261V27.8335H47.5517L48.1418 25.7724L48.4312 24.6685V27.8335H49.0666V23.3391H48.29L47.7121 25.1945V25.1945ZM45.2697 23.2879C44.5765 23.2879 44.2169 23.6991 44.2169 24.4182V26.7549C44.2169 27.4739 44.5765 27.8847 45.2697 27.8847C45.9632 27.8847 46.3228 27.4739 46.3228 26.7549V26.1579H45.6552V26.7999C45.6552 27.1205 45.514 27.2366 45.2892 27.2366C45.0644 27.2366 44.9231 27.1205 44.9231 26.7999V24.3727C44.9231 24.0517 45.0644 23.9304 45.2892 23.9304C45.514 23.9304 45.6552 24.0517 45.6552 24.3727V24.8544H46.3228V24.4182C46.3228 23.6991 45.9632 23.2879 45.2697 23.2879ZM42.6865 23.2879C41.9933 23.2879 41.6334 23.6991 41.6334 24.4182V26.7549C41.6334 27.4739 41.9933 27.8847 42.6865 27.8847C43.3796 27.8847 43.7396 27.4739 43.7396 26.7549V26.1579H43.0716V26.7999C43.0716 27.1205 42.9304 27.2366 42.7055 27.2366C42.4807 27.2366 42.34 27.1205 42.34 26.7999V24.3727C42.34 24.0517 42.4807 23.9304 42.7055 23.9304C42.9304 23.9304 43.0716 24.0517 43.0716 24.3727V24.8544H43.7396V24.4182C43.7396 23.6991 43.3796 23.2879 42.6865 23.2879ZM37.862 25.0801C37.862 25.4003 37.7406 25.5033 37.5154 25.5033H37.1818V23.9811H37.5154C37.7406 23.9811 37.862 24.0838 37.862 24.4048V25.0801ZM37.5154 23.3391H36.4753V27.8335H37.1818V26.1454H37.5154C38.222 26.1454 38.5685 25.7538 38.5685 25.0346V24.4498C38.5685 23.7311 38.222 23.3391 37.5154 23.3391ZM40.4377 26.7999C40.4377 27.1205 40.297 27.2427 40.0717 27.2427C39.8473 27.2427 39.7065 27.1205 39.7065 26.7999V24.3727C39.7065 24.0517 39.8473 23.9304 40.0717 23.9304C40.297 23.9304 40.4377 24.0517 40.4377 24.3727V26.7999ZM40.0717 23.2879C39.3786 23.2879 38.9999 23.6991 38.9999 24.4182V26.7549C38.9999 27.4739 39.3786 27.8847 40.0717 27.8847C40.7657 27.8847 41.1443 27.4739 41.1443 26.7549V24.4182C41.1443 23.6991 40.7657 23.2879 40.0717 23.2879ZM50.511 25.1945L50.2541 26.1835V23.3391H49.6247V27.8335H50.3503L50.9407 25.7724L51.2296 24.6685V27.8335H51.8656V23.3391H51.0884L50.511 25.1945V25.1945ZM39.6636 21.4066C39.6636 21.7275 39.5224 21.8497 39.2971 21.8497C39.0727 21.8497 38.932 21.7275 38.932 21.4066V18.9798C38.932 18.6584 39.0727 18.537 39.2971 18.537C39.5224 18.537 39.6636 18.6584 39.6636 18.9798V21.4066ZM39.2971 17.8947C38.6045 17.8947 38.2254 18.3062 38.2254 19.0253V21.362C38.2254 22.0811 38.6045 22.4917 39.2971 22.4917C39.9915 22.4917 40.3697 22.0811 40.3697 21.362V19.0253C40.3697 18.3062 39.9915 17.8947 39.2971 17.8947ZM51.159 22.4406H51.8656V17.9461H51.159V22.4406ZM32.9092 22.4406H33.6157V18.5882H34.4185V22.4406H35.1371V17.9461H32.9092V22.4406ZM36.4068 18.5882H36.7408C36.9657 18.5882 37.0878 18.6913 37.0878 19.0119V19.6863C37.0878 20.0069 36.9657 20.1101 36.7408 20.1101H36.4068V18.5882ZM37.7944 19.6414V19.057C37.7944 18.3382 37.4474 17.9461 36.7408 17.9461H35.7011V22.4406H36.4068V20.7516H36.7408C37.4474 20.7516 37.7944 20.3605 37.7944 19.6414ZM49.3678 20.2768H49.7021C49.9261 20.2768 50.0487 20.3795 50.0487 20.7005V21.3745C50.0487 21.696 49.9261 21.7982 49.7021 21.7982H49.3678V20.2768ZM50.7549 21.3299V20.7459C50.7549 20.0264 50.4082 19.6352 49.7021 19.6352H49.3678V17.9461H48.662V22.4406H49.7021C50.4082 22.4406 50.7549 22.049 50.7549 21.3299V21.3299ZM47.4742 22.4406V18.5882H48.2124V17.9461H46.0299V18.5882H46.7681V22.4406H47.4742ZM44.9425 22.4406H45.6678L44.6862 19.9488L45.6678 17.9461H44.9617L44.0372 19.9043V17.9461H43.3311V22.4406H44.0372V21.0597L44.2555 20.6494L44.9425 22.4406V22.4406ZM42.8247 18.5882V17.9461H40.8987V22.4406H42.8247V21.7982H41.6043V20.4826H42.5743V19.8405H41.6043V18.5882H42.8247V18.5882ZM32.9174 15.1213H33.7201V17.0473H34.4392V12.5533H33.7201V14.4789H32.9174V12.5533H32.2117V17.0473H32.9174V15.1213ZM30.9771 16.0132C30.9771 16.3347 30.8354 16.4564 30.611 16.4564C30.3862 16.4564 30.2445 16.3347 30.2445 16.0132V13.5873C30.2445 13.2655 30.3862 13.1437 30.611 13.1437C30.8354 13.1437 30.9771 13.2655 30.9771 13.5873V16.0132ZM30.611 12.5017C29.9175 12.5017 29.5389 12.9128 29.5389 13.6311V15.9686C29.5389 16.6877 29.9175 17.0988 30.611 17.0988C31.3041 17.0988 31.6828 16.6877 31.6828 15.9686V13.6311C31.6828 12.9128 31.3041 12.5017 30.611 12.5017ZM51.9427 13.1949V12.5533H50.0158V17.0473H51.9427V16.4049H50.7223V15.0896H51.6923V14.4468H50.7223V13.1949H51.9427ZM35.7566 15.6216L36.0971 13.3491L36.4376 15.6216H35.7566V15.6216ZM36.6555 17.0473H37.368L36.649 12.5533H35.6154L34.8963 17.0473H35.5448L35.667 16.232H36.5338L36.6555 17.0473ZM25.9806 12.5533H25.2614V16.4049H24.4587V12.5533H23.7531V17.0473H25.6019V17.6507H26.2886V16.4183H25.9806V12.5533V12.5533ZM44.1607 15.1213H44.9629V17.0473H45.6825V12.5533H44.9629V14.4789H44.1607V12.5533H43.4546V17.0473H44.1607V15.1213ZM41.5666 14.884H41.9006C42.1255 14.884 42.2472 14.9866 42.2472 15.3076V15.9812C42.2472 16.3031 42.1255 16.4049 41.9006 16.4049H41.5666V14.884V14.884ZM42.9533 15.9366V15.3527C42.9533 14.6339 42.6063 14.241 41.9006 14.241H41.5666V12.5533H40.8605V17.0473H41.9006C42.6063 17.0473 42.9533 16.6562 42.9533 15.9366V15.9366ZM46.9522 14.884H47.2858C47.5106 14.884 47.6328 14.9866 47.6328 15.3076V15.9812C47.6328 16.3031 47.5106 16.4049 47.2858 16.4049H46.9522V14.884V14.884ZM48.3385 15.9366V15.3527C48.3385 14.6339 47.9923 14.241 47.2858 14.241H46.9522V12.5533H46.2457V17.0473H47.2858C47.9923 17.0473 48.3385 16.6562 48.3385 15.9366V15.9366ZM38.8726 15.911L38.9497 13.1949H39.5658V17.0473H40.2852V12.5533H38.2882L38.173 15.9496C38.1596 16.3664 38.0573 16.4118 37.7363 16.4118V17.0538H37.8455C38.5516 17.0538 38.847 16.7324 38.8726 15.911ZM27.6613 14.4087L27.4045 15.3976V12.5533H26.7755V17.0473H27.5011L28.0915 14.9866L28.3804 13.8819V17.0473H29.016V12.5533H28.2392L27.6613 14.4087V14.4087ZM21.6954 15.6216L22.0354 13.3491L22.3751 15.6216H21.6954V15.6216ZM21.5533 12.5533L20.8337 17.0473H21.4827L21.6048 16.232H22.4717L22.5938 17.0473H23.306L22.5872 12.5533H21.5533V12.5533ZM49.4496 12.5533H48.7435V17.0473H49.4496V12.5533ZM19.6675 14.4789H18.8644V12.5533H18.1582V17.0473H18.8644V15.1213H19.6675V17.0473H20.3862V12.5533H19.6675V14.4789Z" fill="#FEFEFE"/>
<path d="M31.9848 2.70877L32.68 4.55637L33.3736 2.70877H33.915V5.11915H33.4979V4.32466L33.539 3.2616L32.8278 5.11915H32.5275L31.8175 3.26332L31.8586 4.32466V5.11915H31.4419V2.70877H31.9848Z" fill="#EE3D32"/>
<path d="M34.9293 4.21979H35.6286L35.279 3.22046L34.9293 4.21979ZM35.7455 4.55809H34.812L34.617 5.11915H34.1812L35.0918 2.70877H35.4678L36.3797 5.11915H35.9426L35.7455 4.55809V4.55809Z" fill="#EE3D32"/>
<path d="M38.5353 2.70877V5.11915H38.1181V3.04622H37.3795L37.3366 3.97849C37.3197 4.26964 37.2842 4.49571 37.2296 4.65646C37.175 4.8172 37.0957 4.93422 36.9922 5.00827C36.8882 5.08195 36.7492 5.11915 36.5751 5.11915H36.469V4.78465L36.5351 4.77998C36.6314 4.7709 36.7055 4.7375 36.7579 4.67856C36.8102 4.62011 36.8501 4.53169 36.877 4.41307C36.9043 4.29432 36.9233 4.11971 36.9341 3.88885L36.9805 2.70877H38.5353V2.70877Z" fill="#EE3D32"/>
<path d="M40.5291 3.85116C40.5291 3.58383 40.4789 3.379 40.3776 3.23693C40.2766 3.09436 40.1337 3.02338 39.9483 3.02338C39.7671 3.02338 39.6256 3.09436 39.5237 3.23607C39.4215 3.37765 39.3691 3.5783 39.3669 3.83777V3.97678C39.3669 4.24153 39.4189 4.44635 39.5219 4.59113C39.6251 4.73578 39.768 4.80811 39.9517 4.80811C40.1372 4.80811 40.2796 4.7375 40.3793 4.59579C40.4794 4.45458 40.5291 4.24841 40.5291 3.97678V3.85116V3.85116ZM40.9481 3.97678C40.9481 4.21292 40.9073 4.42044 40.8259 4.5985C40.744 4.77643 40.6275 4.91335 40.4754 5.00913C40.3234 5.10442 40.1493 5.15207 39.9517 5.15207C39.7564 5.15207 39.5822 5.10442 39.4292 5.00913C39.2763 4.91335 39.1581 4.77729 39.0753 4.60059C38.9917 4.42425 38.9497 4.22066 38.9485 3.99029V3.85423C38.9485 3.61895 38.99 3.41142 39.0736 3.23214C39.1567 3.05187 39.2741 2.91422 39.4258 2.8188C39.5778 2.72314 39.7516 2.6755 39.9483 2.6755C40.1445 2.6755 40.319 2.72266 40.4703 2.81709C40.6223 2.91152 40.7392 3.0472 40.8225 3.22428C40.9052 3.40147 40.9472 3.60728 40.9481 3.84256V3.97678V3.97678Z" fill="#EE3D32"/>
<path d="M42.7604 4.04308H41.7705V4.78465H42.928V5.11915H41.3521V2.70877H42.9164V3.04622H41.7705V3.71214H42.7604V4.04308Z" fill="#EE3D32"/>
<path d="M45.5627 2.70877H45.9815V5.11915H45.5627V3.40233L44.5048 5.11915H44.0859V2.70877H44.5048V4.42731L45.5627 2.70877Z" fill="#EE3D32"/>
<path d="M49.1398 4.33461C49.1149 4.5915 49.0205 4.79202 48.8551 4.93631C48.6892 5.0801 48.4691 5.15207 48.1939 5.15207C48.0021 5.15207 47.8332 5.10663 47.6872 5.01564C47.5408 4.92465 47.4277 4.79509 47.3484 4.62748C47.2692 4.45986 47.2276 4.26486 47.2241 4.04309V3.81776C47.2241 3.59083 47.2644 3.3903 47.345 3.21691C47.4255 3.04364 47.5416 2.91029 47.6919 2.81622C47.8426 2.72265 48.0164 2.6755 48.214 2.6755C48.4803 2.6755 48.6943 2.74783 48.8568 2.89162C49.0188 3.03542 49.1132 3.23951 49.1398 3.50327H48.7225C48.7026 3.33001 48.6518 3.20524 48.5713 3.12862C48.4899 3.0515 48.3712 3.01332 48.214 3.01332C48.032 3.01332 47.8921 3.07963 47.7946 3.21311C47.6967 3.3461 47.6469 3.54146 47.6447 3.79872V4.01276C47.6447 4.27308 47.6911 4.47189 47.7847 4.6093C47.8777 4.7461 48.0142 4.81462 48.1939 4.81462C48.3586 4.81462 48.482 4.77729 48.5653 4.70373C48.6481 4.62969 48.7 4.50664 48.7225 4.33461H49.1398V4.33461Z" fill="#EE3D32"/>
<path d="M49.9185 3.8875H50.4218C50.5708 3.8875 50.6844 3.8525 50.7627 3.78226C50.8412 3.71214 50.8806 3.6112 50.8806 3.47858C50.8806 3.34817 50.8407 3.24429 50.761 3.16631C50.6817 3.08871 50.5725 3.04892 50.4332 3.04622H49.9185V3.8875V3.8875ZM49.9185 4.22507V5.11915H49.4995V2.70877H50.4218C50.6909 2.70877 50.9048 2.77901 51.063 2.91937C51.222 3.05972 51.3008 3.24515 51.3008 3.47601C51.3008 3.71251 51.2232 3.89671 51.0681 4.02785C50.913 4.15961 50.696 4.22507 50.4166 4.22507H49.9185V4.22507Z" fill="#EE3D32"/>
<path d="M53.0618 4.04308H52.0719V4.78465H53.229V5.11915H51.6531V2.70877H53.2173V3.04622H52.0719V3.71214H53.0618V4.04308Z" fill="#EE3D32"/>
<path d="M54.0382 4.78465H55.071V3.04622H54.3674L54.328 3.72516C54.2977 4.17914 54.2015 4.53169 54.0382 4.78465ZM55.7731 5.71177H55.3758V5.11915H53.7882V5.71177H53.3841L53.3711 4.78465H53.5647C53.6609 4.69207 53.7372 4.55724 53.7947 4.38016C53.852 4.20297 53.8891 4.00231 53.9056 3.77833L53.9689 2.70877H55.4881V4.78465H55.7944L55.7731 5.71177Z" fill="#EE3D32"/>
<path d="M58.0094 5.11915H57.5922V4.04959H56.5139V5.11915H56.0955V2.70877H56.5139V3.71214H57.5922V2.70877H58.0094V5.11915Z" fill="#EE3D32"/>
<path d="M59.8995 4.04308H58.9097V4.78465H60.0672V5.11915H58.4907V2.70877H60.055V3.04622H58.9097V3.71214H59.8995V4.04308Z" fill="#EE3D32"/>
<path d="M61.8027 4.04308H60.8128V4.78465H61.9703V5.11915H60.3943V2.70877H61.9586V3.04622H60.8128V3.71214H61.8027V4.04308Z" fill="#EE3D32"/>
<path d="M21.1531 9.18778H20.7359V7.11485H19.6746V9.18778H19.2578V6.7774H21.1531V9.18778Z" fill="#EE3D32"/>
<path d="M22.0634 7.95613H22.5668C22.7158 7.95613 22.8298 7.92113 22.9078 7.85089C22.9861 7.78078 23.0255 7.67935 23.0255 7.54722C23.0255 7.41681 22.9857 7.31292 22.9059 7.23531C22.8267 7.15734 22.7175 7.11755 22.5784 7.11485H22.0634V7.95613V7.95613ZM22.0634 8.29358V9.18778H21.6445V6.7774H22.5668C22.8358 6.7774 23.0498 6.84764 23.2084 6.988C23.3669 7.12836 23.4462 7.31378 23.4462 7.54464C23.4462 7.78115 23.3683 7.96522 23.2132 8.09649C23.0581 8.22825 22.841 8.29358 22.562 8.29358H22.0634V8.29358Z" fill="#EE3D32"/>
<path d="M25.2066 8.11172H24.2167V8.85328H25.3744V9.18778H23.7979V6.7774H25.3622V7.11485H24.2167V7.78078H25.2066V8.11172Z" fill="#EE3D32"/>
<path d="M26.183 8.85328H27.2163V7.11485H26.5127L26.4728 7.79367C26.4425 8.24778 26.3464 8.60081 26.183 8.85328ZM27.918 9.7804H27.5208V9.18778H25.9331V9.7804H25.5289L25.5159 8.85328H25.7095C25.8057 8.76057 25.8824 8.6255 25.9395 8.44867C25.9967 8.2716 26.0339 8.07095 26.0505 7.84697L26.1138 6.7774H27.6334V8.85328H27.9396L27.918 9.7804V9.7804Z" fill="#EE3D32"/>
<path d="M30.1474 9.18778H29.7302V7.11485H28.6693V9.18778H28.2522V6.7774H30.1474V9.18778Z" fill="#EE3D32"/>
<path d="M31.0581 7.95613H31.5614C31.7105 7.95613 31.8239 7.92113 31.9024 7.85089C31.9807 7.78078 32.0201 7.67935 32.0201 7.54722C32.0201 7.41681 31.9804 7.31292 31.9007 7.23531C31.8213 7.15734 31.7122 7.11755 31.5727 7.11485H31.0581V7.95613V7.95613ZM31.0581 8.29358V9.18778H30.6392V6.7774H31.5614C31.8304 6.7774 32.0445 6.84764 32.2026 6.988C32.3615 7.12836 32.4403 7.31378 32.4403 7.54464C32.4403 7.78115 32.3629 7.96522 32.2078 8.09649C32.0527 8.22825 31.8356 8.29358 31.5562 8.29358H31.0581V8.29358Z" fill="#EE3D32"/>
<path d="M34.2691 6.7774H34.688V9.18778H34.2691V7.47096L33.2112 9.18778H32.7922V6.7774H33.2112V8.49595L34.2691 6.7774Z" fill="#EE3D32"/>
<path d="M37.0897 9.18778H36.6726V8.11822H35.5943V9.18778H35.1758V6.7774H35.5943V7.78078H36.6726V6.7774H37.0897V9.18778Z" fill="#EE3D32"/>
<path d="M39.0478 6.7774H39.4668V9.18778H39.0478V7.47096L37.99 9.18778H37.571V6.7774H37.99V8.49595L39.0478 6.7774Z" fill="#EE3D32"/>
<path d="M40.4972 6.7774L41.1921 8.62501L41.886 6.7774H42.4272V9.18778H42.0099V8.39279L42.0516 7.3306L41.3398 9.18778H41.0401L40.3296 7.33196L40.3712 8.39279V9.18778H39.9541V6.7774H40.4972Z" fill="#EE3D32"/>
<path d="M43.4419 8.28891H44.1406L43.791 7.2891L43.4419 8.28891ZM44.2581 8.62673H43.324L43.1292 9.18778H42.6934L43.6044 6.7774H43.9799L44.8918 9.18778H44.4552L44.2581 8.62673V8.62673Z" fill="#EE3D32"/>
<path d="M46.8933 7.11485H46.1413V9.18778H45.7258V7.11485H44.9807V6.7774H46.8933V7.11485Z" fill="#EE3D32"/>
<path d="M48.6047 8.11172H47.6147V8.85328H48.7718V9.18778H47.1958V6.7774H48.7601V7.11485H47.6147V7.78078H48.6047V8.11172Z" fill="#EE3D32"/>
<path d="M50.9944 6.7774V9.18778H50.5772V7.11485H49.8386L49.7962 8.04712C49.7792 8.33864 49.7437 8.56434 49.6891 8.72508C49.6346 8.88582 49.5553 9.00273 49.4517 9.0769C49.3477 9.15095 49.2087 9.18778 49.0346 9.18778H48.9285V8.85328L48.9947 8.84862C49.0908 8.83941 49.165 8.80564 49.2174 8.74719C49.2697 8.68911 49.3096 8.60032 49.3365 8.4817C49.3638 8.36296 49.3828 8.18834 49.3937 7.95785L49.4396 6.7774H50.9944V6.7774Z" fill="#EE3D32"/>
<path d="M51.8964 8.03718V8.85328H52.3881C52.5293 8.85328 52.6393 8.81522 52.7183 8.73847C52.7971 8.66185 52.8365 8.56054 52.8365 8.43357C52.8365 8.31224 52.7979 8.21658 52.7208 8.14634C52.6437 8.07574 52.5366 8.03939 52.3993 8.03718H51.8964V8.03718ZM51.8964 7.69973H52.3898C52.5661 7.69973 52.7203 7.73006 52.8512 7.79023C52.9829 7.85139 53.083 7.9371 53.1514 8.04884C53.2194 8.16022 53.2536 8.28928 53.2536 8.43615C53.2536 8.66148 53.1774 8.84211 53.0245 8.97891C52.8715 9.11583 52.6636 9.18557 52.3993 9.18778H51.478V6.7774H51.8964V7.69973Z" fill="#EE3D32"/>
<path d="M55.4408 8.40274C55.4161 8.66012 55.3217 8.86065 55.1561 9.00457C54.9902 9.14873 54.7702 9.22106 54.4951 9.22106C54.3032 9.22106 54.1342 9.17513 53.9878 9.08426C53.8418 8.99327 53.7287 8.86372 53.6495 8.6961C53.5702 8.52849 53.5286 8.33349 53.5251 8.11172V7.88638C53.5251 7.65945 53.5654 7.4588 53.6461 7.28553C53.7266 7.11227 53.8427 6.97891 53.993 6.88485C54.1438 6.79128 54.3175 6.74413 54.515 6.74413C54.7815 6.74413 54.9955 6.81645 55.1578 6.96025C55.3199 7.10404 55.4139 7.30813 55.4408 7.5719H55.0236C55.0037 7.39863 54.953 7.2735 54.872 7.19724C54.7909 7.12013 54.6723 7.08194 54.515 7.08194C54.3331 7.08194 54.1931 7.14874 54.0956 7.28173C53.9978 7.41472 53.9479 7.61009 53.9458 7.86735V8.08138C53.9458 8.34171 53.9921 8.54052 54.0857 8.67793C54.1789 8.81473 54.3153 8.88325 54.4951 8.88325C54.6598 8.88325 54.7832 8.84592 54.8663 8.77236C54.9491 8.69819 55.001 8.57527 55.0236 8.40274H55.4408Z" fill="#EE3D32"/>
<path d="M57.5427 7.11485H56.7907V9.18778H56.3753V7.11485H55.6301V6.7774H57.5427V7.11485Z" fill="#EE3D32"/>
<path d="M58.2641 8.10005V8.85328H58.7294C58.8606 8.85328 58.9633 8.82087 59.0374 8.75542C59.111 8.69046 59.1482 8.59996 59.1482 8.48428C59.1482 8.23341 59.02 8.10557 58.764 8.10005H58.2641ZM58.2641 7.79195H58.6747C58.8048 7.79195 58.9065 7.76248 58.9802 7.70366C59.0534 7.64472 59.0903 7.56109 59.0903 7.45279C59.0903 7.33367 59.0564 7.24747 58.988 7.19455C58.9205 7.14175 58.8147 7.11485 58.6713 7.11485H58.2641V7.79195V7.79195ZM57.8452 9.18778V6.7774H58.6713C58.9437 6.7774 59.1513 6.83205 59.2939 6.94159C59.4363 7.05038 59.5074 7.21321 59.5074 7.42946C59.5074 7.53985 59.4774 7.63956 59.4181 7.72749C59.3583 7.81627 59.2713 7.8843 59.1561 7.93317C59.2865 7.96829 59.3869 8.0346 59.4584 8.13247C59.5295 8.22997 59.565 8.34736 59.565 8.48428C59.565 8.71035 59.4922 8.88411 59.3475 9.0058C59.2024 9.12712 58.9945 9.18778 58.7242 9.18778H57.8452V9.18778Z" fill="#EE3D32"/>
<path d="M61.4755 7.91979C61.4755 7.65246 61.4248 7.44763 61.3239 7.30556C61.223 7.16299 61.08 7.09188 60.8946 7.09188C60.7135 7.09188 60.5719 7.16298 60.4696 7.30469C60.3678 7.44677 60.3154 7.6468 60.3133 7.9064V8.04541C60.3133 8.31052 60.3647 8.51498 60.4679 8.65964C60.5714 8.80441 60.7144 8.87674 60.8981 8.87674C61.083 8.87674 61.2256 8.80564 61.3256 8.66491C61.4252 8.5232 61.4755 8.31703 61.4755 8.04541V7.91979V7.91979ZM61.8939 8.04541C61.8939 8.28154 61.8537 8.48894 61.7719 8.667C61.6903 8.84505 61.5734 8.98198 61.4218 9.07776C61.2697 9.17305 61.0956 9.22106 60.8981 9.22106C60.7022 9.22106 60.5281 9.17305 60.3757 9.07776C60.2227 8.98198 60.1044 8.84592 60.0213 8.6697C59.938 8.49337 59.8956 8.28928 59.8943 8.05842V7.92322C59.8943 7.68806 59.9363 7.48054 60.0196 7.30027C60.1032 7.1205 60.2201 6.98321 60.3721 6.88743C60.5237 6.79214 60.6979 6.74413 60.8946 6.74413C61.0908 6.74413 61.265 6.79128 61.4166 6.88571C61.5683 6.98014 61.6857 7.11571 61.7683 7.2934C61.8516 7.4701 61.893 7.67627 61.8939 7.91155V8.04541Z" fill="#EE3D32"/>
</svg>
