<svg fill="none" xmlns="http://www.w3.org/2000/svg">
<symbol id="icon" viewBox="0 0 18 20">
<g clip-path="url(#clip0_160_461)">
<path d="M9.51735 9.16446e-07C9.95857 0.0865704 10.4078 0.146729 10.8395 0.265578C12.1867 0.641202 13.2935 1.3856 14.1575 2.45623C15.1781 3.71955 15.6524 5.1658 15.5893 6.77296C15.5491 7.8826 15.2044 8.96131 14.5912 9.89631C13.908 10.9503 13.2144 11.9994 12.5258 13.0495C12.4972 13.093 12.4727 13.1385 12.4356 13.2011C12.7782 13.2676 13.1102 13.3249 13.4373 13.3968C14.4314 13.6144 15.407 13.8858 16.311 14.3603C16.8383 14.6371 17.3261 14.9672 17.6632 15.4602C18.1745 16.2061 18.0944 17.0689 17.4604 17.7521C16.9625 18.2901 16.327 18.6286 15.6534 18.9039C14.48 19.3828 13.2495 19.6376 11.9934 19.8029C10.7523 19.968 9.49905 20.0294 8.24727 19.9863C6.29407 19.9183 4.3649 19.6777 2.52389 18.9807C1.90688 18.7474 1.32192 18.4584 0.817591 18.0294C-0.316768 17.0615 -0.267187 15.7356 0.926769 14.8386C1.68301 14.2703 2.54642 13.9216 3.45491 13.6775C4.08745 13.5078 4.73351 13.384 5.37356 13.2402L5.56337 13.1982C5.14869 12.5624 4.74403 11.9437 4.34187 11.324C3.95724 10.7312 3.54656 10.1526 3.19799 9.54025C2.45828 8.23926 2.21989 6.83704 2.50035 5.37611C2.93857 3.10623 4.26474 1.49222 6.40475 0.524798C7.00611 0.260405 7.64818 0.0951366 8.30486 0.0357047C8.36309 0.0267393 8.42077 0.0146567 8.47764 -0.000488281L9.51735 9.16446e-07ZM8.9985 16.2452C9.05759 16.1601 9.10668 16.0931 9.15225 16.0242C10.6317 13.7621 12.1176 11.5045 13.5865 9.23653C14.2581 8.20014 14.499 7.05419 14.3478 5.83977C14.206 4.70557 13.7413 3.70439 12.9344 2.87049C11.6904 1.58515 10.1514 1.02367 8.35895 1.22176C6.8064 1.39343 5.57038 2.13832 4.63835 3.36643C3.35876 5.05282 3.2626 7.48949 4.41649 9.25609C5.90159 11.53 7.38836 13.8025 8.8768 16.0736C8.91136 16.1264 8.94992 16.1768 8.9985 16.2452ZM9.47127 18.8262C9.95557 18.7866 10.9126 18.7284 11.8642 18.6271C12.9762 18.5168 14.067 18.2554 15.105 17.8504C15.6429 17.6362 16.1672 17.3936 16.5634 16.9588C16.8599 16.6326 16.8749 16.3186 16.5589 16.01C16.3251 15.7802 16.0602 15.5827 15.7716 15.4231C14.5696 14.7731 13.2495 14.5226 11.9113 14.3265C11.738 14.3011 11.6659 14.3632 11.5837 14.4904C10.9156 15.5233 10.246 16.5548 9.56392 17.5785C9.46754 17.7237 9.33108 17.8394 9.17028 17.9121C8.89282 18.027 8.6339 17.8979 8.43758 17.5971C7.75312 16.5504 7.07084 15.5025 6.39072 14.4532C6.32361 14.3495 6.26452 14.2952 6.12379 14.3216C5.71311 14.3984 5.29643 14.4454 4.88676 14.5266C3.95323 14.7124 3.03623 14.9584 2.20587 15.4284C1.91946 15.5924 1.65643 15.7926 1.42358 16.0237C1.1256 16.3171 1.13912 16.6345 1.42358 16.9417C1.55242 17.0819 1.69727 17.2073 1.85529 17.3154C2.48482 17.7438 3.19849 17.9933 3.92869 18.1957C5.5834 18.6594 7.28269 18.8027 9.47127 18.8262V18.8262Z" fill="white"/>
<path d="M9.01177 3.55372C9.40659 3.55499 9.79725 3.63251 10.1613 3.78182C10.5253 3.93114 10.8555 4.14929 11.1328 4.42372C11.4101 4.69816 11.6292 5.02345 11.7772 5.38088C11.9253 5.73831 11.9996 6.12081 11.9957 6.50637C11.9901 8.115 10.6434 9.41403 8.98222 9.41061C8.5874 9.40934 8.19674 9.33181 7.83272 9.1825C7.4687 9.03319 7.13852 8.81504 6.86118 8.5406C6.58385 8.26617 6.36483 7.94087 6.21675 7.58344C6.06866 7.22601 5.99443 6.84351 5.99833 6.45795C6.00384 4.84981 7.35155 3.55078 9.01177 3.55372ZM10.7942 6.47507C10.7441 5.45629 9.98937 4.7295 8.99123 4.73634C7.94752 4.74368 7.20381 5.51351 7.21082 6.48925C7.21783 7.50755 8.00512 8.23483 9.00576 8.22798C10.0465 8.22113 10.7581 7.45228 10.7942 6.47507Z" fill="white"/>
</g>
<defs>
<clipPath id="clip0_160_461">
<rect width="18" height="20" fill="white"/>
</clipPath>
</defs>
</symbol>
</svg>
