<svg fill="none" xmlns="http://www.w3.org/2000/svg">
    <symbol id="icon" viewBox="0 0 33 25">
        <path
            d="M16.4233 1.5625C21.9488 1.5625 26.4 2.03125 28.5488 2.42187C29.7 2.73437 30.6209 3.51563 30.7744 4.53125C31.2349 7.03125 31.5419 9.6875 31.5419 12.4219C31.4651 15.7812 31.0814 18.5156 30.7744 20.4688C30.5442 21.9531 29.0093 22.4219 28.5488 22.5781C25.786 23.125 21.1814 23.5156 16.5767 23.5156C11.9721 23.5156 7.2907 23.2031 4.60465 22.5781C3.45349 22.2656 2.53256 21.4844 2.37907 20.4688C1.76512 18.2813 1.53488 15.3906 1.53488 12.5C1.53488 8.90625 1.84186 6.25 2.14884 4.60938C2.37907 3.125 3.9907 2.65625 4.37442 2.5C6.90698 1.95313 11.5884 1.5625 16.4233 1.5625ZM16.4233 0C11.3581 0 6.6 0.390625 4.06744 0.9375C2.37907 1.32813 0.92093 2.5 0.613954 4.29688C0.306977 6.17188 0 8.98438 0 12.5C0 16.0156 0.306977 18.75 0.690698 20.7031C0.997674 22.4219 2.45581 23.6719 4.14419 24.0625C6.83023 24.6094 11.4349 25 16.5 25C21.5651 25 26.1698 24.6094 28.8558 24.0625C30.5442 23.6719 32.0023 22.5 32.3093 20.7031C32.6163 18.75 33 15.9375 33.0767 12.4219C33.0767 8.90625 32.693 6.09375 32.3093 4.14063C32.0023 2.42188 30.5442 1.17188 28.8558 0.78125C26.1698 0.390625 21.4884 0 16.4233 0Z"
            stroke="none"
        />
        <path
            d="M13.814 8.90625L19.9535 12.5L13.814 16.0938V8.90625ZM12.2791 6.25V18.75L23.0233 12.5L12.2791 6.25Z"
            stroke="none" />
    </symbol>
</svg>