<svg fill="none" xmlns="http://www.w3.org/2000/svg">
<symbol id="icon" viewBox="0 0 21 15">
<path d="M10.4752 14.2692C7.89581 14.2692 5.31639 14.2692 2.73697 14.2692C1.34631 14.2692 0.264013 13.4038 0.0315224 12.1185C0.00692443 11.9546 -0.00330714 11.7891 0.000931531 11.6235C0.000931531 8.62373 0.000931531 5.62391 0.000931531 2.62409C0.000931531 1.0936 1.16338 0.00155345 2.78531 0.000976562C7.92865 0.000976562 13.072 0.000976562 18.2153 0.000976562C19.8409 0.000976562 20.996 1.0913 20.9973 2.62524C21.0001 5.63314 21.0001 8.64084 20.9973 11.6484C20.9973 13.1811 19.8397 14.2703 18.2135 14.2715C15.6345 14.2719 13.0551 14.2711 10.4752 14.2692ZM1.46562 3.80555V4.06458C1.46562 6.5752 1.4809 9.08351 1.45582 11.597C1.44848 12.3712 2.02542 12.9014 2.83241 12.899C7.94475 12.8823 13.0571 12.8904 18.1694 12.8904C19.0517 12.8904 19.5313 12.4416 19.532 11.6149C19.532 9.09004 19.532 6.56481 19.532 4.0392C19.532 3.96535 19.5252 3.89094 19.5203 3.79344C19.4206 3.84594 19.3545 3.87882 19.2903 3.91459C16.9295 5.2472 14.5681 6.57924 12.2061 7.91069C11.0864 8.5395 9.94968 8.55104 8.82455 7.92569C7.01847 6.92191 5.21972 5.90658 3.41792 4.89761L1.46562 3.80555ZM19.4848 2.23642C19.4766 2.19609 19.466 2.15622 19.453 2.117C19.2536 1.63299 18.8216 1.38262 18.1805 1.38262H2.81711C2.74859 1.38262 2.67946 1.38263 2.61094 1.38609C2.13433 1.41551 1.8015 1.64568 1.57818 2.03623C1.48886 2.19199 1.51701 2.2791 1.69015 2.37544C4.2714 3.80959 6.85389 5.24316 9.42291 6.69692C10.1345 7.10074 10.7922 7.10824 11.5031 6.70615C13.7454 5.437 15.9999 4.18745 18.2496 2.92983C18.6615 2.69754 19.0733 2.46544 19.4848 2.23353V2.23642Z" fill="white"/>
</symbol>
</svg>
