<svg id="front-filter" width="16" height="16" viewBox="0 0 16 16" fill="none" xmlns="http://www.w3.org/2000/svg">
<path d="M1.78134e-07 0.749974L1.06585e-07 6.74997C1.01672e-07 7.16197 0.239 7.73897 0.53 8.02997L7.969 15.469C8.10993 15.6092 8.30067 15.688 8.4995 15.688C8.69833 15.688 8.88907 15.6092 9.03 15.469L15.469 9.02997C15.6093 8.88905 15.688 8.69831 15.688 8.49947C15.688 8.30064 15.6093 8.1099 15.469 7.96897L8.03 0.529974C7.738 0.237974 7.162 -2.56638e-05 6.75 -2.56687e-05L0.75 -2.57403e-05C0.551331 0.0007639 0.361024 0.0800362 0.220543 0.220517C0.0800614 0.360998 0.000790127 0.551305 1.78134e-07 0.749974H1.78134e-07ZM6 4.49997C5.99993 4.69702 5.96106 4.89213 5.88559 5.07415C5.81012 5.25618 5.69954 5.42155 5.56016 5.56084C5.42078 5.70013 5.25533 5.8106 5.07325 5.88595C4.89118 5.96129 4.69605 6.00004 4.499 5.99997C4.30195 5.99991 4.10685 5.96103 3.92482 5.88556C3.7428 5.8101 3.57742 5.69952 3.43813 5.56013C3.29884 5.42075 3.18837 5.2553 3.11303 5.07323C3.03768 4.89115 2.99893 4.69602 2.999 4.49897C2.99913 4.10102 3.15735 3.71941 3.43884 3.43811C3.72033 3.1568 4.10204 2.99884 4.5 2.99897C4.89796 2.99911 5.27956 3.15732 5.56087 3.43881C5.84217 3.72031 6.00013 4.10202 6 4.49997Z" fill="#C39367"/>
</svg>
