<svg  fill="#1C1C1C" xmlns="http://www.w3.org/2000/svg">
<symbol id="icon" width="22" height="18" viewBox="0 0 22 18">
<path d="M11 2.56665C14.79 2.56665 18.17 5.69665 19.82 9.06665C18.17 12.4367 14.79 15.5667 11 15.5667C7.21 15.5667 3.83 12.4367 2.18 9.06665C3.83 5.69665 7.21 2.56665 11 2.56665ZM11 0.56665C6 0.56665 1.73 4.67665 0 9.06665C1.73 13.4566 6 17.5667 11 17.5667C16 17.5667 20.27 13.4566 22 9.06665C20.27 4.67665 16 0.56665 11 0.56665ZM11 6.56665C12.38 6.56665 13.5 7.68665 13.5 9.06665C13.5 10.4467 12.38 11.5667 11 11.5667C9.62 11.5667 8.5 10.4467 8.5 9.06665C8.5 7.68665 9.62 6.56665 11 6.56665ZM11 4.56665C8.52 4.56665 6.5 6.58665 6.5 9.06665C6.5 11.5466 8.52 13.5667 11 13.5667C13.48 13.5667 15.5 11.5466 15.5 9.06665C15.5 6.58665 13.48 4.56665 11 4.56665Z" stroke="none"/>
</symbol>
</svg>
