<svg fill="1C1C1C" stroke="#1C1C1C" xmlns="http://www.w3.org/2000/svg">
<symbol id="icon" viewBox="0 0 25 23" width="25" height="23" >
<path d="M25 7.29268V16.037C24.9865 16.0642 24.9757 16.0927 24.9677 16.1221C24.8855 16.5993 24.6267 17.0292 24.2417 17.328C23.8566 17.6268 23.3729 17.7731 22.8848 17.7385C22.229 17.7146 21.5678 17.7385 20.9093 17.7385H20.4067V21.9924C20.4067 22.6889 20.0949 23 19.3988 23H5.60546C4.90397 23 4.58951 22.6916 4.58951 22.0003V17.7465H4.28848C3.5413 17.7465 2.79143 17.7465 2.04424 17.7465C1.76992 17.7602 1.49576 17.7164 1.2398 17.6178C0.983846 17.5192 0.75189 17.3681 0.559193 17.1745C0.366496 16.9808 0.217422 16.7491 0.121778 16.4943C0.0261338 16.2396 -0.0139142 15.9678 0.00426811 15.6967C0.00426811 13.0079 0.00426811 10.3191 0.00426811 7.63033C-0.0115778 7.35993 0.0303664 7.08925 0.127366 6.83596C0.224366 6.58267 0.374244 6.35244 0.567228 6.16029C0.760212 5.96814 0.991969 5.81838 1.24739 5.72077C1.50281 5.62316 1.77616 5.5799 2.04962 5.5938C2.80755 5.5938 3.56549 5.5938 4.32074 5.5938H4.58951V0.975725C4.58951 0.316379 4.91203 0 5.57859 0H19.4203C20.0842 0 20.404 0.319036 20.4067 0.978382V5.5938H20.6997C21.4657 5.5938 22.2317 5.5938 22.995 5.5938C23.3058 5.57874 23.6154 5.64208 23.8946 5.77788C24.1739 5.91368 24.4137 6.11748 24.5915 6.37013C24.7583 6.66347 24.8951 6.97251 25 7.29268ZM20.4067 16.0795H20.5975H22.9412C23.2449 16.0795 23.3363 15.9918 23.3363 15.6914V7.63299C23.3363 7.33788 23.2369 7.24749 22.9358 7.24483C22.3741 7.24483 21.8151 7.24483 21.2533 7.24483H2.13294C1.74859 7.24483 1.6599 7.31927 1.6599 7.65426V15.6967C1.6599 15.9998 1.74859 16.0875 2.05231 16.0875H4.39599C4.45781 16.0875 4.51963 16.0742 4.58951 16.0689V13.926C4.58951 13.264 4.90934 12.945 5.57321 12.945H19.4176C20.0842 12.945 20.404 13.264 20.4067 13.9234V16.0795ZM6.26664 21.3304H18.7269V14.6066H6.26664V21.3304ZM18.7269 1.65634H6.27739V5.5938H18.7269V1.65634Z" stroke="none"/>
</symbol>
</svg>
