<svg width="354" height="168" viewBox="0 0 354 168" fill="none" xmlns="http://www.w3.org/2000/svg">
<path d="M315.964 136.244L303.439 123.737L290.917 136.244L303.439 162.394L315.964 136.244Z" fill="#E74B36"/>
<path d="M303.44 51.8003C298.634 51.8003 294.736 55.6954 294.736 60.5058C294.736 65.3078 298.634 69.2071 303.44 69.2071C308.246 69.2071 312.146 65.3078 312.146 60.5058C312.146 55.6954 308.246 51.8003 303.44 51.8003Z" fill="#CD9B6A"/>
<path d="M314.603 96.2733L303.439 85.0916L292.281 96.2733C291.712 94.7231 284.233 74.4827 284.233 61.2761C284.233 43.4628 302.1 33.4813 303.439 32.7515C304.783 33.4813 322.649 43.4628 322.649 61.2761C322.649 74.4827 315.17 94.7231 314.603 96.2733ZM303.439 12.7437C300.79 14.1018 266.142 32.4091 266.142 61.6634C266.142 86.6844 286.537 124.633 286.537 124.633L303.439 107.7L320.346 124.633C320.346 124.633 340.737 86.6844 340.737 61.6634C340.737 32.4091 306.092 14.1018 303.439 12.7437V12.7437Z" fill="#CD9B6A"/>
<path d="M340.737 25.4915L327.994 12.7468L340.737 0L353.484 12.7468L340.737 25.4915Z" fill="#CD9B6A"/>
<path d="M220.847 25.4916C220.847 28.1555 219.64 29.7067 217.551 29.7067C215.457 29.7067 214.257 28.0659 214.257 25.4916H203.421C203.726 33.429 208.315 38.7846 217.716 38.7846C226.387 38.7846 231.34 33.2818 231.675 25.4916H220.847Z" fill="#5E3427"/>
<path d="M197.936 78.9923L197.941 41.6938H210.454C210.454 41.6938 210.454 57.7875 210.454 59.0602C210.454 60.3319 210.183 61.7733 210.183 61.7733H210.725L224.345 41.6938H236.318V78.9923H223.803V61.4649C223.803 60.2156 224.074 59.0293 224.074 59.0293H223.533L209.912 78.9923H197.936Z" fill="#5E3427"/>
<path d="M172.117 68.3514C176.656 68.3514 179.678 64.8201 179.678 60.398C179.678 55.8596 176.656 52.3325 172.117 52.3325C167.695 52.3325 164.56 55.8596 164.56 60.398C164.56 64.8201 167.695 68.3514 172.117 68.3514ZM172.117 40.7411C183.995 40.7411 192.851 49.1373 192.851 60.398C192.851 71.5424 183.995 79.9471 172.117 79.9471C160.36 79.9471 151.496 71.5424 151.496 60.398C151.496 49.1373 160.36 40.7411 172.117 40.7411Z" fill="#5E3427"/>
<path d="M136.505 41.6853C136.505 41.6853 126.048 55.2728 125.631 55.7881C125.115 56.4239 125.074 56.7664 125.074 56.7664H124.528C124.528 56.7664 124.427 56.3941 123.934 55.7881C123.196 54.8738 112.368 41.6853 112.368 41.6853H102.5V78.9837H114.563V63.3265C114.563 61.6366 114.287 60.6092 114.287 60.6092H114.834L124.532 71.7493H125.051L134.042 60.6092H134.584C134.584 60.6092 134.31 61.6217 134.31 63.3265V78.9837H146.379V41.6853H136.505V41.6853Z" fill="#5E3427"/>
<path d="M20.663 118.719C12.3223 118.719 7.5386 111.048 7.5386 102.298C9.5112 97.2056 15.6424 93.0918 20.8092 93.0918C28.3636 93.0918 33.1805 97.7892 33.1805 105.828C33.1805 113.292 27.7342 118.719 20.663 118.719V118.719ZM22.4735 86.8667C16.1608 86.8667 9.56026 90.3713 7.15126 95.6021L6.80875 95.5989C6.94006 95.0527 7.1662 94.515 7.2036 93.9997C7.7914 85.9642 10.9973 79.5694 17.215 77.3567C21.1293 75.9677 25.0061 75.4033 27.9646 74.775C31.1257 74.1007 34.3699 73.3176 36.2775 72.7501L34.1736 66.4343C30.7074 67.387 27.4792 68.0826 22.0553 69.19C19.7637 69.6562 17.2565 70.0584 14.3247 71.2938C4.36559 75.4855 0 83.8603 0 99.6445C0 113.826 7.07546 125.02 20.6438 125.02C33.1165 125.02 40.6965 115.279 40.6965 105.497C40.6965 94.2099 33.4632 86.8667 22.4735 86.8667V86.8667Z" fill="#5E3427"/>
<path d="M53.3185 113.173C53.3185 113.173 53.1798 113.17 52.976 113.17C53.1382 112.579 53.3185 111.705 53.3185 110.836V86.4518H45.8813V123.749H52.5546L73.8608 96.9411H74.2065C74.0379 97.5247 73.8608 98.5105 73.8608 99.3682V123.749H81.3053V86.4518H74.6279L53.3185 113.173V113.173Z" fill="#5E3427"/>
<path d="M109.614 104.63V104.465C114.014 102.887 116.17 99.9816 116.17 95.6651C116.17 89.44 111.108 85.4393 102.143 85.4393C96.9903 85.4393 91.5674 86.8656 87.0962 90.286L90.028 95.5787C93.3736 92.951 97.6453 91.6452 101.146 91.6452C106.046 91.6452 108.681 93.6733 108.681 96.9933C108.681 99.9816 106.378 102.085 102.64 102.085H96.7502V107.882H103.058C107.623 107.882 109.904 109.444 109.904 112.515C109.904 116.165 106.23 118.657 100.66 118.657C96.7353 118.657 92.1361 116.967 89.1478 114.558L86.2076 119.933C89.4519 122.872 95.0454 125.018 101.56 125.018C110.521 125.018 117.378 120.317 117.378 113.429C117.378 108.864 114.593 105.209 109.614 104.63V104.63Z" fill="#5E3427"/>
<path d="M150.013 101.753H130.002V86.4539H122.562V123.751H130.002V107.553H150.013V123.751H157.458V86.4539H150.013V101.753Z" fill="#5E3427"/>
<path d="M170.416 101.952C171.364 96.175 175.587 91.6921 181.139 91.6921C187.867 91.6921 191.134 96.2156 191.725 101.952H170.416ZM180.773 85.4371C169.802 85.4371 162.644 94.0563 162.644 105.422C162.644 116.642 169.847 125.02 182.915 125.02C189.222 125.02 194.59 123.084 198.458 119.931L195.519 114.56C192.655 116.709 188.286 118.711 183.129 118.711C174.969 118.711 171.022 114.274 170.307 107.756H170.333H198.839C198.914 106.992 198.959 106.216 198.959 105.422C198.959 94.0563 193.468 85.4371 180.773 85.4371V85.4371Z" fill="#5E3427"/>
<path d="M224.576 118.562C216.981 118.562 211.392 112.852 211.392 104.749C211.392 97.8319 215.851 91.8095 224.146 91.8095C227.922 91.8095 231.723 92.807 236.088 95.6149C236.088 95.6149 237.982 92.2053 239.114 90.1345C234.647 86.9659 229.483 85.3923 223.951 85.3923C211.937 85.3923 203.876 93.8269 203.876 105.193C203.876 116.269 211.911 125.017 224.074 125.017C230.036 125.017 235.238 123.304 239.103 120.154L236.164 114.779C233.3 116.932 229.156 118.562 224.576 118.562Z" fill="#5E3427"/>
<path d="M11.5801 161.021H14.663V138.999H11.5801V148.406H4.40756V138.999H1.32458V161.021H4.40756V151.237H11.5801V161.021ZM17.4315 153.156C17.4315 158.672 19.3924 161.43 23.3143 161.43C25.2018 161.43 26.6541 160.743 27.6712 159.369C28.6884 157.995 29.1971 155.924 29.1971 153.156C29.1971 147.64 27.2361 144.882 23.3143 144.882C21.4058 144.882 19.9482 145.569 18.9415 146.943C17.9348 148.316 17.4315 150.387 17.4315 153.156ZM20.4515 153.156C20.4515 149.381 21.4058 147.493 23.3143 147.493C25.2228 147.493 26.1769 149.381 26.1769 153.156C26.1769 156.931 25.2228 158.818 23.3143 158.818C21.4058 158.818 20.4515 156.931 20.4515 153.156ZM31.8082 160.989C33.3601 161.157 34.7547 161.241 35.9921 161.241C38.0684 161.241 39.5995 160.863 40.5852 160.108C41.5709 159.353 42.0637 158.179 42.0637 156.585C42.0637 154.488 41.1514 153.219 39.3268 152.778V152.653C40.0608 152.338 40.6166 151.84 40.9941 151.158C41.3716 150.477 41.5603 149.748 41.5603 148.972C41.5603 147.651 41.1672 146.67 40.3807 146.03C39.5942 145.391 38.3096 145.071 36.527 145.071C35.4574 145.071 33.8844 145.155 31.8082 145.323V160.989V160.989ZM34.6709 153.974H36.527C38.2048 153.974 39.0437 154.729 39.0437 156.239C39.0437 157.099 38.8286 157.728 38.3987 158.126C37.9687 158.525 37.282 158.724 36.3382 158.724C35.709 158.724 35.1533 158.682 34.6709 158.598V153.974V153.974ZM34.6709 151.866V147.682C35.5518 147.619 36.1494 147.588 36.464 147.588C37.2819 147.588 37.8587 147.755 38.1943 148.091C38.5299 148.427 38.6976 148.972 38.6976 149.727C38.6976 150.314 38.4931 150.817 38.0841 151.237C37.6751 151.656 37.198 151.866 36.6527 151.866H34.6709V151.866ZM44.077 153.156C44.077 158.672 46.038 161.43 49.9599 161.43C51.8474 161.43 53.2998 160.743 54.3169 159.369C55.3341 157.995 55.8427 155.924 55.8427 153.156C55.8427 147.64 53.8817 144.882 49.9599 144.882C48.0514 144.882 46.5937 145.569 45.587 146.943C44.5803 148.316 44.077 150.387 44.077 153.156ZM47.097 153.156C47.097 149.381 48.0514 147.493 49.9599 147.493C51.8684 147.493 52.8226 149.381 52.8226 153.156C52.8226 156.931 51.8684 158.818 49.9599 158.818C48.0514 158.818 47.097 156.931 47.097 153.156ZM66.6645 157.875C65.9514 158.441 65.1125 158.724 64.1478 158.724C63.0153 158.724 62.1815 158.221 61.6467 157.214C61.1119 156.207 60.8445 154.855 60.8445 153.156C60.8445 149.444 61.8723 147.588 63.9276 147.588C64.7875 147.588 65.6368 147.808 66.4757 148.248L67.1992 145.731C66.2764 145.186 65.0285 144.914 63.4556 144.914C61.631 144.914 60.2364 145.616 59.2717 147.021C58.3069 148.427 57.8245 150.471 57.8245 153.156C57.8245 158.651 59.6911 161.398 63.4242 161.398C65.0811 161.398 66.4023 161 67.3881 160.203L66.6645 157.875V157.875ZM77.3291 161.021H80.2546V145.291H78.3357L73.4596 153.439L72.3585 156.019H72.2328L72.4844 153.659V145.291H69.5588V161.021H71.5092L76.3224 153.124L77.4549 150.482H77.5492L77.3291 152.936V161.021V161.021ZM85.3825 148.028H85.3196C85.5084 145.826 85.9435 144.316 86.6251 143.498C87.3068 142.68 88.3711 142.208 89.8182 142.082C90.9507 141.977 91.8001 141.852 92.3664 141.705C92.9326 141.558 93.3731 141.317 93.6877 140.981L93.5618 138.181C93.1004 138.727 91.905 139.104 89.9755 139.314C89.0108 139.419 88.2399 139.55 87.6632 139.707C87.0864 139.864 86.4573 140.19 85.7757 140.682C85.0941 141.175 84.5698 141.836 84.2028 142.664C83.8358 143.493 83.5265 144.646 83.2748 146.125C83.0231 147.603 82.8973 149.391 82.8973 151.489C82.8973 154.97 83.39 157.497 84.3757 159.07C85.3615 160.643 86.84 161.43 88.8114 161.43C90.699 161.43 92.1462 160.711 93.1529 159.275C94.1595 157.838 94.6629 155.683 94.6629 152.81C94.6629 150.335 94.2277 148.489 93.3573 147.273C92.487 146.057 91.2548 145.448 89.6609 145.448C87.7734 145.448 86.3473 146.308 85.3825 148.028V148.028ZM85.9173 153.25C85.9173 149.79 86.945 148.06 89.0003 148.06C90.762 148.06 91.6428 149.758 91.6428 153.156C91.6428 156.931 90.6886 158.818 88.7801 158.818C87.8363 158.818 87.1232 158.315 86.6409 157.308C86.1585 156.302 85.9173 154.949 85.9173 153.25ZM105.076 161.021H108.001V145.291H106.082L101.206 153.439L100.105 156.019H99.9795L100.231 153.659V145.291H97.3055V161.021H99.2559L104.069 153.124L105.202 150.482H105.296L105.076 152.936V161.021V161.021ZM111.273 167.312H114.199V160.895C114.891 161.251 115.709 161.43 116.653 161.43C118.498 161.43 119.935 160.669 120.962 159.149C121.99 157.628 122.504 155.515 122.504 152.81C122.504 150.041 122.106 148.033 121.308 146.785C120.512 145.538 119.285 144.914 117.628 144.914C115.971 144.914 114.723 145.616 113.884 147.021H113.79L113.381 145.291H111.273V167.312V167.312ZM116.778 147.525C118.582 147.525 119.484 149.265 119.484 152.747C119.484 154.76 119.211 156.276 118.666 157.293C118.121 158.31 117.345 158.818 116.338 158.818C115.457 158.818 114.744 158.567 114.199 158.063V149.916C114.597 148.322 115.457 147.525 116.778 147.525V147.525ZM133.326 157.875C132.613 158.441 131.774 158.724 130.809 158.724C129.677 158.724 128.843 158.221 128.308 157.214C127.773 156.207 127.506 154.855 127.506 153.156C127.506 149.444 128.534 147.588 130.589 147.588C131.449 147.588 132.298 147.808 133.137 148.248L133.861 145.731C132.938 145.186 131.69 144.914 130.117 144.914C128.292 144.914 126.898 145.616 125.933 147.021C124.968 148.427 124.486 150.471 124.486 153.156C124.486 158.651 126.352 161.398 130.086 161.398C131.742 161.398 133.064 161 134.049 160.203L133.326 157.875V157.875ZM143.613 161.021H147.01L143.361 153.848L141.946 152.621L143.141 151.489L146.507 145.291H143.393L140.09 151.772L139.146 152.212V145.291H136.22V161.021H139.146V154.194H140.152L143.613 161.021V161.021ZM149.433 148.468C150.523 147.902 151.75 147.619 153.113 147.619C153.952 147.619 154.529 147.829 154.844 148.248C155.158 148.668 155.316 149.391 155.316 150.419C155.316 150.671 155.295 151.153 155.253 151.866C155.001 151.845 154.655 151.835 154.215 151.835C149.936 151.835 147.797 153.47 147.797 156.742C147.797 158.105 148.153 159.196 148.866 160.014C149.58 160.832 150.523 161.241 151.698 161.241C153.439 161.241 154.707 160.559 155.504 159.196H155.63L156.196 161.052H158.493C158.22 159.982 158.084 158.567 158.084 156.805C158.084 156.134 158.11 155.043 158.163 153.533C158.215 152.023 158.241 150.859 158.241 150.041C158.241 148.448 157.916 147.21 157.266 146.329C156.616 145.448 155.473 145.008 153.837 145.008C151.677 145.008 149.936 145.417 148.615 146.235L149.433 148.468V148.468ZM152.673 158.63C152.107 158.63 151.656 158.43 151.32 158.032C150.985 157.633 150.817 157.067 150.817 156.333C150.817 154.697 151.981 153.879 154.309 153.879C154.54 153.879 154.886 153.9 155.347 153.942V156.962C154.844 158.074 153.952 158.63 152.673 158.63ZM168.025 161.021H170.951V145.354C169.734 145.06 168.434 144.914 167.05 144.914H166.924C164.932 144.914 163.442 145.354 162.457 146.235C161.471 147.116 160.978 148.479 160.978 150.325C160.978 151.499 161.251 152.474 161.796 153.25C162.341 154.026 163.054 154.509 163.935 154.697L162.834 155.767L160.129 161.021H163.558L166.326 155.138L168.025 154.76V161.021V161.021ZM166.955 153.093C166.033 153.114 165.309 152.883 164.785 152.401C164.26 151.918 163.998 151.237 163.998 150.356C163.998 148.468 164.9 147.525 166.704 147.525C167.228 147.525 167.668 147.598 168.025 147.745V153.03L166.955 153.093V153.093ZM180.011 153.156C180.011 158.672 181.972 161.43 185.894 161.43C187.781 161.43 189.233 160.743 190.251 159.369C191.268 157.995 191.776 155.924 191.776 153.156C191.776 147.64 189.815 144.882 185.894 144.882C183.985 144.882 182.527 145.569 181.521 146.943C180.514 148.316 180.011 150.387 180.011 153.156ZM183.031 153.156C183.031 149.381 183.985 147.493 185.894 147.493C187.802 147.493 188.756 149.381 188.756 153.156C188.756 156.931 187.802 158.818 185.894 158.818C183.985 158.818 183.031 156.931 183.031 153.156ZM196.243 148.028H196.181C196.369 145.826 196.804 144.316 197.486 143.498C198.168 142.68 199.232 142.208 200.679 142.082C201.812 141.977 202.661 141.852 203.227 141.705C203.794 141.558 204.234 141.317 204.549 140.981L204.423 138.181C203.961 138.727 202.766 139.104 200.836 139.314C199.872 139.419 199.101 139.55 198.524 139.707C197.947 139.864 197.318 140.19 196.637 140.682C195.955 141.175 195.431 141.836 195.064 142.664C194.697 143.493 194.387 144.646 194.136 146.125C193.884 147.603 193.758 149.391 193.758 151.489C193.758 154.97 194.251 157.497 195.237 159.07C196.223 160.643 197.701 161.43 199.672 161.43C201.56 161.43 203.007 160.711 204.014 159.275C205.02 157.838 205.524 155.683 205.524 152.81C205.524 150.335 205.089 148.489 204.218 147.273C203.348 146.057 202.116 145.448 200.522 145.448C198.634 145.448 197.208 146.308 196.243 148.028V148.028ZM196.778 153.25C196.778 149.79 197.806 148.06 199.861 148.06C201.623 148.06 202.504 149.758 202.504 153.156C202.504 156.931 201.55 158.818 199.641 158.818C198.697 158.818 197.984 158.315 197.502 157.308C197.019 156.302 196.778 154.949 196.778 153.25ZM215.056 161.021H217.982V145.291H209.519C209.435 148.856 209.294 151.593 209.095 153.502C208.895 155.41 208.644 156.695 208.34 157.356C208.035 158.016 207.632 158.347 207.128 158.347C206.919 158.347 206.709 158.315 206.499 158.252L206.122 160.8C206.541 161.052 207.181 161.178 208.041 161.178C208.586 161.178 209.063 161.026 209.472 160.722C209.881 160.418 210.227 159.951 210.51 159.322C210.793 158.693 211.029 158.021 211.218 157.308C211.407 156.595 211.559 155.688 211.674 154.587C211.789 153.486 211.879 152.453 211.941 151.489C212.004 150.524 212.067 149.349 212.13 147.965H215.056V161.021ZM222.008 148.468C223.099 147.902 224.326 147.619 225.689 147.619C226.528 147.619 227.105 147.829 227.419 148.248C227.734 148.668 227.891 149.391 227.891 150.419C227.891 150.671 227.87 151.153 227.828 151.866C227.577 151.845 227.23 151.835 226.79 151.835C222.512 151.835 220.372 153.47 220.372 156.742C220.372 158.105 220.729 159.196 221.442 160.014C222.155 160.832 223.099 161.241 224.273 161.241C226.014 161.241 227.283 160.559 228.08 159.196H228.206L228.772 161.052H231.068C230.796 159.982 230.659 158.567 230.659 156.805C230.659 156.134 230.686 155.043 230.738 153.533C230.791 152.023 230.817 150.859 230.817 150.041C230.817 148.448 230.492 147.21 229.841 146.329C229.191 145.448 228.048 145.008 226.412 145.008C224.252 145.008 222.512 145.417 221.19 146.235L222.008 148.468V148.468ZM225.248 158.63C224.682 158.63 224.231 158.43 223.896 158.032C223.56 157.633 223.392 157.067 223.392 156.333C223.392 154.697 224.556 153.879 226.884 153.879C227.115 153.879 227.461 153.9 227.922 153.942V156.962C227.419 158.074 226.528 158.63 225.248 158.63ZM242.205 157.875C241.492 158.441 240.653 158.724 239.688 158.724C238.556 158.724 237.722 158.221 237.187 157.214C236.652 156.207 236.385 154.855 236.385 153.156C236.385 149.444 237.413 147.588 239.468 147.588C240.328 147.588 241.177 147.808 242.016 148.248L242.74 145.731C241.817 145.186 240.569 144.914 238.996 144.914C237.171 144.914 235.777 145.616 234.812 147.021C233.847 148.427 233.365 150.471 233.365 153.156C233.365 158.651 235.231 161.398 238.965 161.398C240.621 161.398 241.943 161 242.928 160.203L242.205 157.875V157.875ZM253.719 145.291H243.369V147.965H247.081V161.021H250.007V147.965H253.719V145.291V145.291ZM258.312 153.47C258.773 153.324 259.318 153.25 259.948 153.25C261.625 153.25 262.464 154.131 262.464 155.893C262.464 157.717 261.604 158.63 259.885 158.63C259.381 158.63 258.857 158.567 258.312 158.441V153.47V153.47ZM258.312 145.291H255.386V161.021C256.749 161.167 258.133 161.241 259.539 161.241C261.636 161.241 263.151 160.795 264.084 159.904C265.018 159.012 265.484 157.602 265.484 155.673C265.484 154.225 265.102 153.067 264.336 152.196C263.571 151.326 262.349 150.891 260.671 150.891C259.853 150.891 259.067 150.964 258.312 151.111V145.291Z" fill="#5E3427"/>
</svg>
