<svg id="select-arrow-down" width="12" height="6" viewBox="0 0 12 6" fill="none" xmlns="http://www.w3.org/2000/svg">
<mask id="path-1-inside-1_0_849" fill="white">
<path d="M6.37383 5.8583L11.8574 0.766689C11.9489 0.681733 12 0.568863 12 0.451489C12 0.334116 11.9489 0.221246 11.8574 0.13629L11.8512 0.130808C11.8068 0.0894805 11.7534 0.0565723 11.6942 0.0340846C11.635 0.011597 11.5712 7.9698e-07 11.5068 7.91348e-07C11.4424 7.85715e-07 11.3786 0.011597 11.3194 0.0340846C11.2602 0.0565722 11.2068 0.0894805 11.1624 0.130808L5.99897 4.92549L0.837607 0.130807C0.793229 0.0894795 0.739812 0.0565713 0.680605 0.0340837C0.621398 0.011596 0.557639 -1.65858e-07 0.493206 -1.71491e-07C0.428774 -1.77124e-07 0.365015 0.011596 0.305808 0.0340837C0.246601 0.0565713 0.193184 0.0894795 0.148806 0.130807L0.14261 0.136289C0.0510676 0.221245 1.84903e-08 0.334115 8.22917e-09 0.451488C-2.03194e-09 0.568862 0.0510675 0.681732 0.14261 0.766688L5.62617 5.8583C5.67439 5.90308 5.73239 5.93872 5.79665 5.96308C5.86091 5.98744 5.93009 6 6 6C6.06991 6 6.13909 5.98744 6.20335 5.96308C6.26761 5.93872 6.32561 5.90308 6.37383 5.8583Z"/>
</mask>
<path d="M6.37383 5.8583L11.8574 0.766689C11.9489 0.681733 12 0.568863 12 0.451489C12 0.334116 11.9489 0.221246 11.8574 0.13629L11.8512 0.130808C11.8068 0.0894805 11.7534 0.0565723 11.6942 0.0340846C11.635 0.011597 11.5712 7.9698e-07 11.5068 7.91348e-07C11.4424 7.85715e-07 11.3786 0.011597 11.3194 0.0340846C11.2602 0.0565722 11.2068 0.0894805 11.1624 0.130808L5.99897 4.92549L0.837607 0.130807C0.793229 0.0894795 0.739812 0.0565713 0.680605 0.0340837C0.621398 0.011596 0.557639 -1.65858e-07 0.493206 -1.71491e-07C0.428774 -1.77124e-07 0.365015 0.011596 0.305808 0.0340837C0.246601 0.0565713 0.193184 0.0894795 0.148806 0.130807L0.14261 0.136289C0.0510676 0.221245 1.84903e-08 0.334115 8.22917e-09 0.451488C-2.03194e-09 0.568862 0.0510675 0.681732 0.14261 0.766688L5.62617 5.8583C5.67439 5.90308 5.73239 5.93872 5.79665 5.96308C5.86091 5.98744 5.93009 6 6 6C6.06991 6 6.13909 5.98744 6.20335 5.96308C6.26761 5.93872 6.32561 5.90308 6.37383 5.8583Z" fill="#CBCBCB"/>
<path d="M6.37383 5.8583L3.6521 2.92705L3.65203 2.92712L6.37383 5.8583ZM11.8574 0.766689L9.1364 -2.16524L9.13566 -2.16456L11.8574 0.766689ZM12 0.451489L8 0.451489L12 0.451489ZM11.8574 0.136291L14.5784 -2.79564L14.5435 -2.82797L14.508 -2.85946L11.8574 0.136291ZM11.8512 0.130808L9.12515 3.05804L9.16246 3.09278L9.20063 3.12656L11.8512 0.130808ZM11.5068 9.10557e-07L11.5068 -4L11.5068 9.10557e-07ZM11.1624 0.130808L13.8842 3.06197L13.8884 3.05804L11.1624 0.130808ZM5.99897 4.92549L3.27656 7.8561L5.99842 10.3846L8.72079 7.85664L5.99897 4.92549ZM0.837607 0.130807L-1.88844 3.05804L-1.8848 3.06142L0.837607 0.130807ZM0.493207 -5.22816e-08L0.493207 -4L0.493207 -5.22816e-08ZM0.148806 0.130807L2.7994 3.12653L2.83756 3.09277L2.87485 3.05804L0.148806 0.130807ZM0.14261 0.13629L-2.50798 -2.85943L-2.54356 -2.82796L-2.57838 -2.79564L0.14261 0.13629ZM0.14261 0.766688L2.86434 -2.16456L2.8636 -2.16524L0.14261 0.766688ZM5.62617 5.8583L8.34797 2.92712L8.3479 2.92705L5.62617 5.8583ZM9.09556 8.78954L14.5791 3.69793L9.13566 -2.16456L3.6521 2.92705L9.09556 8.78954ZM14.5784 3.69862C15.4269 2.91118 16 1.75905 16 0.45149L8 0.451489C8 -0.621324 8.471 -1.54771 9.1364 -2.16524L14.5784 3.69862ZM16 0.45149C16 -0.856075 15.4269 -2.0082 14.5784 -2.79564L9.1364 3.06822C8.471 2.45069 8 1.52431 8 0.451489L16 0.45149ZM14.508 -2.85946L14.5018 -2.86494L9.20063 3.12656L9.20683 3.13204L14.508 -2.85946ZM14.5772 -2.79643C14.1375 -3.20596 13.6355 -3.50738 13.1145 -3.70528L10.2739 3.77345C9.87131 3.62053 9.47616 3.38492 9.12515 3.05804L14.5772 -2.79643ZM13.1145 -3.70528C12.5936 -3.90312 12.0479 -4 11.5068 -4L11.5068 4C11.0945 4 10.6764 3.92631 10.2739 3.77345L13.1145 -3.70528ZM11.5068 -4C10.9657 -4 10.42 -3.90312 9.89913 -3.70528L12.7397 3.77345C12.3372 3.92631 11.9191 4 11.5068 4L11.5068 -4ZM9.89913 -3.70528C9.3781 -3.50738 8.87611 -3.20596 8.43635 -2.79643L13.8884 3.05804C13.5374 3.38492 13.1423 3.62053 12.7397 3.77345L9.89913 -3.70528ZM8.44057 -2.80035L3.27714 1.99434L8.72079 7.85664L13.8842 3.06196L8.44057 -2.80035ZM8.72138 1.99488L3.56002 -2.7998L-1.8848 3.06142L3.27656 7.8561L8.72138 1.99488ZM3.56365 -2.79643C3.1239 -3.20596 2.62191 -3.50738 2.10087 -3.70528L-0.739658 3.77345C-1.14229 3.62052 -1.53744 3.38491 -1.88844 3.05804L3.56365 -2.79643ZM2.10087 -3.70528C1.57999 -3.90312 1.03434 -4 0.493207 -4L0.493206 4C0.0809376 4 -0.337194 3.92631 -0.739658 3.77345L2.10087 -3.70528ZM0.493207 -4C-0.0479337 -4 -0.593583 -3.90312 -1.11445 -3.70528L1.72607 3.77345C1.32361 3.92631 0.905482 4 0.493206 4L0.493207 -4ZM-1.11445 -3.70528C-1.63548 -3.50739 -2.13747 -3.20597 -2.57724 -2.79643L2.87485 3.05804C2.52383 3.38493 2.12868 3.62053 1.72607 3.77345L-1.11445 -3.70528ZM-2.50179 -2.86492L-2.50798 -2.85943L2.7932 3.13201L2.7994 3.12653L-2.50179 -2.86492ZM-2.57838 -2.79564C-3.42686 -2.00821 -4 -0.856089 -4 0.451488L4 0.451489C4 1.52432 3.52899 2.4507 2.8636 3.06822L-2.57838 -2.79564ZM-4 0.451488C-4 1.75906 -3.42686 2.91118 -2.57838 3.69862L2.8636 -2.16524C3.52899 -1.54772 4 -0.621337 4 0.451489L-4 0.451488ZM-2.57912 3.69793L2.90444 8.78954L8.3479 2.92705L2.86434 -2.16456L-2.57912 3.69793ZM2.90437 8.78948C3.34765 9.20109 3.85354 9.50426 4.37887 9.70339L7.21443 2.22277C7.61124 2.37319 8.00113 2.60506 8.34797 2.92712L2.90437 8.78948ZM4.37887 9.70339C4.90402 9.90245 5.45421 10 6 10L6 2C6.40597 2 6.8178 2.07243 7.21443 2.22277L4.37887 9.70339ZM6 10C6.54579 10 7.09599 9.90245 7.62113 9.70339L4.78557 2.22277C5.18219 2.07243 5.59403 2 6 2L6 10ZM7.62113 9.70339C8.14647 9.50426 8.65236 9.20109 9.09563 8.78948L3.65203 2.92712C3.99886 2.60506 4.38875 2.37319 4.78557 2.22277L7.62113 9.70339Z" fill="#C39367" mask="url(#path-1-inside-1_0_849)"/>
</svg>
